#N canvas 861 255 450 300 12;
#X obj 47 27 inlet;
#X obj 47 51 t f f f, f 11;
#X obj 47 99 pack f f f, f 11;
#X obj 47 123 outlet;
#X obj 84 75 + \$1;
#X obj 121 75 + \$2;
#X connect 0 0 1 0;
#X connect 1 0 2 0;
#X connect 1 1 4 0;
#X connect 1 2 5 0;
#X connect 2 0 3 0;
#X connect 4 0 2 1;
#X connect 5 0 2 2;
