#N canvas 417 74 2060 1313 12;
#X obj 158 469 outlet~;
#X obj 1497 61 inlet;
#X obj 1497 85 route atmospherics;
#N canvas 391 72 806 932 verb 0;
#X obj 253 775 outlet~;
#X obj 221 369 delwrite~ \$0-atmos-delay 1000;
#X obj 511 142 delread4~ \$0-atmos-delay;
#X obj 511 70 r \$0-delay;
#X msg 511 94 \$1 100;
#X obj 511 118 line~;
#X obj 511 238 *~;
#X msg 529 190 \$1 100;
#X obj 529 214 line~;
#X obj 529 166 r \$0-delay-feedback;
#X obj 268 722 +~;
#X obj 221 297 delay-allpass 73;
#X obj 221 321 delay-allpass 257;
#X obj 294 472 r \$0-verbwet;
#X msg 480 558 \$1 100;
#X obj 480 582 line~;
#X msg 263 558 1 \$1;
#X obj 263 582 -;
#X obj 139 125 inlet~;
#X msg 263 606 \$1 100;
#X obj 263 630 line~;
#X obj 220 677 *~;
#X obj 357 689 *~;
#X obj 347 165 loadbang;
#X msg 348 200 coefficient 0.5;
#X obj 221 345 delay-allpass 1439;
#X connect 2 0 6 0;
#X connect 2 0 22 0;
#X connect 3 0 4 0;
#X connect 4 0 5 0;
#X connect 5 0 2 0;
#X connect 6 0 11 0;
#X connect 7 0 8 0;
#X connect 8 0 6 1;
#X connect 9 0 7 0;
#X connect 10 0 0 0;
#X connect 11 0 12 0;
#X connect 12 0 25 0;
#X connect 13 0 14 0;
#X connect 13 0 16 0;
#X connect 14 0 15 0;
#X connect 15 0 22 1;
#X connect 16 0 17 0;
#X connect 17 0 19 0;
#X connect 18 0 11 0;
#X connect 18 0 21 0;
#X connect 19 0 20 0;
#X connect 20 0 21 1;
#X connect 21 0 10 0;
#X connect 22 0 10 1;
#X connect 23 0 24 0;
#X connect 24 0 11 1;
#X connect 24 0 12 1;
#X connect 24 0 25 1;
#X connect 25 0 1 0;
#X restore 123 343 pd verb;
#X obj 1497 133 dispatch \$0 delay 83;
#X obj 1497 157 dispatch \$0 delay-feedback 0.4;
#X obj 284 807 vsl 25 150 0 10 0 0 \$0-noisemod-ctrl-s \$0-noisemod-ctrl-r
noisemod 0 -9 0 10 -262144 -1 -1 1900 1;
#X obj 347 806 vsl 25 150 0 40 0 0 \$0-moddepth-ctrl-s \$0-moddepth-ctrl-r
moddepth 0 -9 0 10 -262144 -1 -1 14400 1;
#X obj 414 802 vsl 25 150 250 2500 1 0 \$0-hipass-ctrl-s \$0-hipass-ctrl-r
hipass 0 -9 0 10 -262144 -1 -1 7000 1;
#X floatatom 624 760 10 0 0 2 attack #0-vol-env-attack-ctrl-r #0-vol-env-attack-ctrl-s
;
#X floatatom 624 794 10 0 0 2 time #0-vol-env-time-ctrl-r #0-vol-env-time-ctrl-s
;
#X floatatom 624 828 10 0 0 2 decay #0-vol-env-decay-ctrl-r #0-vol-env-decay-ctrl-s
;
#X floatatom 746 770 10 0 0 2 attack #0-freq-env-attack-ctrl-r #0-freq-env-attack-ctrl-s
;
#X floatatom 747 806 10 0 0 2 time #0-freq-env-time-ctrl-r #0-freq-env-time-ctrl-s
;
#X floatatom 747 839 10 0 0 2 decay #0-freq-env-decay-ctrl-r #0-freq-env-decay-ctrl-s
;
#X floatatom 747 871 10 0 0 2 depth #0-freq-env-depth-ctrl-r #0-freq-env-depth-ctrl-s
;
#X floatatom 283 638 5 1 100 1 preset #0-preset-number-ctrl-r #0-preset-number-ctrl-s
;
#X obj 283 665 bng 25 250 50 0 \$0-preset-save-ctrl-s empty save 30
13 0 10 -261234 -1 -1;
#X obj 283 695 bng 25 250 50 0 \$0-preset-load-ctrl-s empty load 30
13 0 10 -204786 -1 -1;
#X obj 1328 338 r \$0-noisemod-ctrl-s;
#X msg 1328 362 noisemod \$1;
#X obj 870 120 s \$0-preset-loading;
#X obj 1290 71 r \$0-preset-loading;
#X obj 1328 410 r \$0-modfreq-ctrl-s;
#X msg 1328 434 modfreq \$1;
#X obj 1328 482 r \$0-moddepth-ctrl-s;
#X msg 1328 506 moddepth \$1;
#X obj 1328 554 r \$0-freq-ctrl-s;
#X msg 1328 578 freq \$1;
#X obj 1328 626 r \$0-hipass-ctrl-s;
#X msg 1328 650 hipass \$1;
#X obj 1328 698 r \$0-vol-env-attack-ctrl-s;
#X msg 1328 722 vol-env-attack \$1;
#X obj 1328 770 r \$0-vol-env-time-ctrl-s;
#X msg 1328 794 vol-env-time \$1;
#X obj 1328 842 r \$0-vol-env-decay-ctrl-s;
#X msg 1328 866 vol-env-decay \$1;
#X obj 1083 169 list store, f 11;
#X obj 1083 241 send;
#X obj 1083 97 list split 1, f 20;
#X obj 1083 145 t b s;
#X obj 1083 73 r \$0-set-ctrl-display;
#X obj 1083 121 makefilename \$0-%s-ctrl-r;
#X obj 1083 193 list prepend set;
#X obj 1083 217 list trim;
#X obj 1298 95 s \$0-change-synth-value;
#X obj 1290 119 s \$0-set-ctrl-display;
#X obj 345 665 bng 25 250 50 0 \$0-preset-open-ctrl-s empty open 30
13 0 10 -262144 -1 -1;
#X obj 628 87 r \$0-preset-number-ctrl-s;
#X obj 610 184 i;
#X obj 674 184 i;
#X obj 610 63 r \$0-preset-save-ctrl-s;
#X msg 610 208 save \$1;
#X msg 674 208 load \$1;
#X obj 647 111 r \$0-preset-load-ctrl-s;
#X obj 345 696 bng 25 250 50 0 \$0-preset-clear-ctrl-s empty clear
30 13 0 10 -260097 -1 -1;
#X obj 821 672 bng 25 250 50 0 \$0-trig empty trigger 30 13 0 10 -159808
-1 -1;
#X text 624 728 volume env (ms);
#X obj 418 663 bng 25 250 50 0 \$0-init-save-ctrl-s empty init_save
30 13 0 10 -262144 -1 -1;
#X obj 418 691 bng 25 250 50 0 \$0-init-load-ctrl-s empty init_load
30 13 0 10 -262144 -1 -1;
#X text 742 740 freq env (ms);
#X obj 1535 338 r \$0-freq-env-attack-ctrl-s;
#X msg 1535 362 freq-env-attack \$1;
#X obj 1535 410 r \$0-freq-env-decay-ctrl-s;
#X msg 1535 434 freq-env-decay \$1;
#X obj 1535 482 r \$0-freq-env-time-ctrl-s;
#X msg 1535 506 freq-env-time \$1;
#X obj 1535 554 r \$0-freq-env-depth-ctrl-s;
#X msg 1535 578 freq-env-depth \$1;
#X floatatom 847 769 10 0 0 2 attack #0-mod-freq-env-attack-ctrl-r
#0-mod-freq-env-attack-ctrl-s;
#X floatatom 848 805 10 0 0 2 time #0-mod-freq-env-time-ctrl-r #0-mod-freq-env-time-ctrl-s
;
#X floatatom 848 838 10 0 0 2 decay #0-mod-freq-env-decay-ctrl-r #0-mod-freq-env-decay-ctrl-s
;
#X floatatom 848 870 10 0 0 2 depth #0-mod-freq-env-depth-ctrl-r #0-mod-freq-env-depth-ctrl-s
;
#X text 843 739 mod freq env (ms);
#X obj 1535 626 r \$0-mod-freq-env-attack-ctrl-s;
#X msg 1535 650 mod-freq-env-attack \$1;
#X obj 1535 698 r \$0-mod-freq-env-decay-ctrl-s;
#X msg 1535 722 mod-freq-env-decay \$1;
#X obj 1535 770 r \$0-mod-freq-env-time-ctrl-s;
#X msg 1535 794 mod-freq-env-time \$1;
#X obj 1535 842 r \$0-mod-freq-env-depth-ctrl-s;
#X msg 1535 866 mod-freq-env-depth \$1;
#X obj 84 277 atmospherics-synth;
#X obj 150 213 bng 15 250 50 0 empty empty empty 17 7 0 10 -262144
-1 -1;
#X obj 154 188 r \$0-trig;
#X floatatom 535 798 10 0 0 2 mod_freq #0-modfreq-ctrl-r #0-modfreq-ctrl-s
;
#X floatatom 536 763 10 0 0 2 freq #0-freq-ctrl-r #0-freq-ctrl-s;
#X obj 207 253 r \$0-change-synth-value;
#X obj 1313 963 r \$0-flush-ctrl-s;
#X obj 1313 1139 send;
#X obj 1313 1115 t b s;
#X obj 1313 1091 makefilename \$0-%s-ctrl-r;
#X msg 1313 987 noisemod \, modfreq \, freq \, hipass \, vol-env-attack
\, vol-env-time \, vol-env-decay \, freq-env-attack \, freq-env-decay
\, freq-env-time \, freq-env-depth \, mod-freq-env-attack \, mod-freq-env-decay
\, mod-freq-env-time \, mod-freq-env-depth;
#X obj 541 669 bng 25 250 50 0 \$0-flush-ctrl-s empty flush 30 13 0
10 -262144 -1 -1;
#X obj 1313 1067 symbol;
#X obj 1328 386 s \$0-ctrl-change;
#X obj 1328 458 s \$0-ctrl-change;
#X obj 1328 530 s \$0-ctrl-change;
#X obj 1328 602 s \$0-ctrl-change;
#X obj 1328 674 s \$0-ctrl-change;
#X obj 1328 746 s \$0-ctrl-change;
#X obj 1328 818 s \$0-ctrl-change;
#X obj 1328 890 s \$0-ctrl-change;
#X obj 1535 386 s \$0-ctrl-change;
#X obj 1535 458 s \$0-ctrl-change;
#X obj 1535 530 s \$0-ctrl-change;
#X obj 1535 602 s \$0-ctrl-change;
#X obj 1535 674 s \$0-ctrl-change;
#X obj 1535 746 s \$0-ctrl-change;
#X obj 1535 818 s \$0-ctrl-change;
#X obj 1535 890 s \$0-ctrl-change;
#X obj 1290 143 r \$0-ctrl-change;
#X obj 1298 167 s \$0-change-synth-value;
#X obj 1497 181 dispatch \$0 verbwet 0.6;
#X obj 674 135 r \$0-preset;
#X obj 674 159 t b f;
#X obj 1497 205 dispatch \$0 start;
#X obj 111 153 r \$0-start;
#X obj 870 96 preset-saver atmos-presets;
#X obj 230 344 r \$0-volume;
#X msg 230 368 \$1 10;
#X obj 230 392 line;
#X obj 160 432 *~;
#X obj 1497 229 dispatch \$0 volume 0.1;
#X obj 870 72 r \$0-preset-saver;
#X obj 1107 338 r \$0-init-save-ctrl-s;
#X msg 1107 362 init save;
#X obj 1107 386 s \$0-preset-saver;
#X obj 1107 410 r \$0-init-load-ctrl-s;
#X msg 1107 434 init load;
#X obj 1107 458 s \$0-preset-saver;
#X obj 1107 482 r \$0-preset-clear-ctrl-s;
#X msg 1107 506 clear;
#X obj 1107 530 s \$0-preset-saver;
#X obj 1107 554 r \$0-preset-open-ctrl-s;
#X msg 1107 578 open;
#X obj 1107 602 s \$0-preset-saver;
#X obj 610 232 s \$0-preset-saver;
#X obj 1290 191 list prepend write;
#X obj 1290 215 list trim;
#X obj 1290 239 s \$0-preset-saver;
#X obj 1497 109 dispatch \$0 preset 1;
#X connect 1 0 2 0;
#X connect 2 0 141 0;
#X connect 3 0 122 0;
#X connect 4 0 5 0;
#X connect 5 0 113 0;
#X connect 19 0 20 0;
#X connect 20 0 95 0;
#X connect 22 0 45 0;
#X connect 22 0 46 0;
#X connect 23 0 24 0;
#X connect 24 0 96 0;
#X connect 25 0 26 0;
#X connect 26 0 97 0;
#X connect 27 0 28 0;
#X connect 28 0 98 0;
#X connect 29 0 30 0;
#X connect 30 0 99 0;
#X connect 31 0 32 0;
#X connect 32 0 100 0;
#X connect 33 0 34 0;
#X connect 34 0 101 0;
#X connect 35 0 36 0;
#X connect 36 0 102 0;
#X connect 37 0 43 0;
#X connect 39 0 42 0;
#X connect 39 1 37 1;
#X connect 40 0 37 0;
#X connect 40 1 38 1;
#X connect 41 0 39 0;
#X connect 42 0 40 0;
#X connect 43 0 44 0;
#X connect 44 0 38 0;
#X connect 48 0 49 1;
#X connect 48 0 50 1;
#X connect 49 0 52 0;
#X connect 50 0 53 0;
#X connect 51 0 49 0;
#X connect 52 0 137 0;
#X connect 53 0 137 0;
#X connect 54 0 50 0;
#X connect 61 0 62 0;
#X connect 62 0 103 0;
#X connect 63 0 64 0;
#X connect 64 0 104 0;
#X connect 65 0 66 0;
#X connect 66 0 105 0;
#X connect 67 0 68 0;
#X connect 68 0 106 0;
#X connect 74 0 75 0;
#X connect 75 0 107 0;
#X connect 76 0 77 0;
#X connect 77 0 108 0;
#X connect 78 0 79 0;
#X connect 79 0 109 0;
#X connect 80 0 81 0;
#X connect 81 0 110 0;
#X connect 82 0 3 0;
#X connect 83 0 82 0;
#X connect 84 0 83 0;
#X connect 87 0 82 1;
#X connect 88 0 92 0;
#X connect 90 0 89 0;
#X connect 90 1 89 1;
#X connect 91 0 90 0;
#X connect 92 0 94 0;
#X connect 94 0 91 0;
#X connect 111 0 138 0;
#X connect 111 0 112 0;
#X connect 113 0 116 0;
#X connect 114 0 115 0;
#X connect 115 0 50 0;
#X connect 115 1 50 1;
#X connect 115 1 49 1;
#X connect 116 0 123 0;
#X connect 117 0 83 0;
#X connect 118 0 21 0;
#X connect 119 0 120 0;
#X connect 120 0 121 0;
#X connect 121 0 122 1;
#X connect 122 0 0 0;
#X connect 124 0 118 0;
#X connect 125 0 126 0;
#X connect 126 0 127 0;
#X connect 128 0 129 0;
#X connect 129 0 130 0;
#X connect 131 0 132 0;
#X connect 132 0 133 0;
#X connect 134 0 135 0;
#X connect 135 0 136 0;
#X connect 138 0 139 0;
#X connect 139 0 140 0;
#X connect 141 0 4 0;
