#N canvas 96 25 1284 673 12;
#X obj 116 571 outlet;
#X obj 115 517 r \$0-out;
#X obj 514 58 loadbang;
#X obj 514 130 tgl 15 0 empty empty empty 17 7 0 10 -262144 -1 -1 1
1;
#X obj 126 367 sel 1;
#X obj 77 368 tgl 15 0 empty empty empty 17 7 0 10 -262144 -1 -1 0
1;
#X obj 291 388 sel 1;
#X obj 179 398 bng 15 250 50 0 empty empty empty 17 7 0 10 -262144
-1 -1;
#X obj 320 415 bng 15 250 50 0 empty empty empty 17 7 0 10 -262144
-1 -1;
#X obj 116 541 list trim;
#X obj 250 392 tgl 15 0 empty empty empty 17 7 0 10 -262144 -1 -1 0
1;
#N canvas 102 87 1197 785 muzac 0;
#X obj 222 160 t b b;
#X obj 320 597 s \$0-out;
#X msg 273 373 1 \$1;
#X obj 273 397 -;
#X obj 273 301 random 100;
#X obj 273 325 - 50;
#X obj 273 349 / 150;
#X obj 225 111 inlet;
#X obj 273 421 list prepend speed;
#X obj 309 543 list prepend muzac;
#X obj 666 77 tgl 15 0 empty empty empty 17 7 0 10 -262144 -1 -1 1
1;
#X obj 666 97 metro 1 60 sec;
#X msg 666 121 read ../samples/muzac/filelist.txt;
#X obj 499 283 t b b;
#X obj 666 145 text define \$0-muzac-filelist;
#X obj 531 307 text size \$0-muzac-filelist;
#X obj 499 331 random 1;
#X obj 499 355 text get \$0-muzac-filelist;
#X obj 666 53 loadbang;
#X msg 499 429 load \$1;
#X obj 528 223 bng 15 250 50 0 empty empty empty 17 7 0 10 -262144
-1 -1;
#X obj 499 379 route symbol;
#X obj 499 403 makefilename ../samples/muzac/%s;
#X obj 866 169 t b;
#X obj 866 193 text size \$0-muzac-filelist;
#X obj 866 241 print muzac;
#X msg 866 217 reloaded filelist with \$1 entries;
#X msg 104 427 play;
#X obj 819 323 random 100;
#X obj 819 347 / 100;
#X msg 819 371 duration \$1;
#X obj 919 348 / 100;
#X obj 919 324 random 30;
#X msg 919 372 start-pos \$1;
#X connect 0 0 27 0;
#X connect 0 1 4 0;
#X connect 0 1 13 0;
#X connect 0 1 28 0;
#X connect 0 1 32 0;
#X connect 2 0 3 0;
#X connect 3 0 8 0;
#X connect 4 0 5 0;
#X connect 5 0 6 0;
#X connect 6 0 2 0;
#X connect 7 0 0 0;
#X connect 8 0 9 0;
#X connect 9 0 1 0;
#X connect 10 0 11 0;
#X connect 11 0 12 0;
#X connect 12 0 14 0;
#X connect 13 0 16 0;
#X connect 13 1 15 0;
#X connect 14 1 23 0;
#X connect 15 0 16 1;
#X connect 16 0 17 0;
#X connect 17 0 21 0;
#X connect 18 0 10 0;
#X connect 19 0 9 0;
#X connect 20 0 13 0;
#X connect 21 0 22 0;
#X connect 22 0 19 0;
#X connect 23 0 24 0;
#X connect 24 0 26 0;
#X connect 26 0 25 0;
#X connect 27 0 9 0;
#X connect 28 0 29 0;
#X connect 29 0 30 0;
#X connect 30 0 9 0;
#X connect 31 0 33 0;
#X connect 32 0 31 0;
#X connect 33 0 9 0;
#X restore 297 459 pd muzac;
#X obj 644 346 sel 1;
#X obj 673 373 bng 15 250 50 0 empty empty empty 17 7 0 10 -262144
-1 -1;
#X obj 603 350 tgl 15 0 empty empty empty 17 7 0 10 -262144 -1 -1 0
1;
#N canvas 243 87 1197 785 vox 0;
#X obj 135 129 t b b;
#X obj 140 569 s \$0-out;
#X msg 221 324 1 \$1;
#X obj 221 348 -;
#X obj 221 252 random 100;
#X obj 221 276 - 50;
#X obj 221 300 / 150;
#X obj 133 59 inlet;
#X obj 221 396 list prepend speed;
#X obj 129 515 list prepend vox;
#X obj 710 294 / 100;
#X msg 710 342 duration \$1;
#X obj 543 47 tgl 15 0 empty empty empty 17 7 0 10 -262144 -1 -1 1
1;
#X obj 543 67 metro 1 60 sec;
#X obj 543 23 loadbang;
#X msg 543 91 read ../samples/vox/filelist.txt;
#X obj 543 115 text define \$0-vox-filelist;
#X obj 410 229 t b b;
#X obj 410 277 random 1;
#X msg 410 373 load \$1;
#X obj 442 253 text size \$0-vox-filelist;
#X obj 410 301 text get \$0-vox-filelist;
#X obj 410 325 route symbol;
#X obj 410 349 makefilename ../samples/vox/%s;
#X obj 729 139 t b;
#X obj 729 163 text size \$0-muzac-filelist;
#X msg 729 187 reloaded filelist with \$1 entries;
#X obj 729 211 print vox;
#X msg 104 427 play;
#X obj 828 335 / 100;
#X obj 828 311 random 30;
#X msg 828 359 start-pos \$1;
#X obj 710 318 + 0.1;
#X obj 710 270 random 90;
#X connect 0 0 28 0;
#X connect 0 1 4 0;
#X connect 0 1 17 0;
#X connect 0 1 30 0;
#X connect 0 1 33 0;
#X connect 2 0 3 0;
#X connect 3 0 8 0;
#X connect 4 0 5 0;
#X connect 5 0 6 0;
#X connect 6 0 2 0;
#X connect 7 0 0 0;
#X connect 8 0 9 0;
#X connect 9 0 1 0;
#X connect 10 0 32 0;
#X connect 11 0 9 0;
#X connect 12 0 13 0;
#X connect 13 0 15 0;
#X connect 14 0 12 0;
#X connect 15 0 16 0;
#X connect 16 1 24 0;
#X connect 17 0 18 0;
#X connect 17 1 20 0;
#X connect 18 0 21 0;
#X connect 19 0 9 0;
#X connect 20 0 18 1;
#X connect 21 0 22 0;
#X connect 22 0 23 0;
#X connect 23 0 19 0;
#X connect 24 0 25 0;
#X connect 25 0 26 0;
#X connect 26 0 27 0;
#X connect 28 0 9 0;
#X connect 29 0 31 0;
#X connect 30 0 29 0;
#X connect 31 0 9 0;
#X connect 32 0 11 0;
#X connect 33 0 10 0;
#X restore 650 417 pd vox;
#N canvas 409 292 1925 886 coms 0;
#X obj 466 300 gen-seq;
#X obj 466 348 s \$0-out;
#X obj 420 160 t b b;
#X obj 282 345 s \$0-out;
#X obj 419 117 inlet;
#X msg 282 301 coms start;
#X obj 783 264 random 100;
#X obj 783 288 / 100;
#X msg 783 312 coms activity \$1;
#X obj 783 336 s \$0-out;
#X obj 943 259 random 100;
#X obj 943 283 / 100;
#X obj 943 331 s \$0-out;
#X msg 943 307 coms duration \$1;
#X obj 1100 256 random 7;
#X obj 1100 280 + 60;
#X obj 1100 328 list prepend coms tones;
#X obj 1100 352 s \$0-out;
#X obj 466 324 list prepend coms sequence;
#X msg 1417 211 coms message this is a message in morese;
#X obj 1417 235 s \$0-out;
#X connect 0 0 18 0;
#X connect 2 0 5 0;
#X connect 2 1 0 0;
#X connect 2 1 6 0;
#X connect 2 1 10 0;
#X connect 2 1 14 0;
#X connect 4 0 2 0;
#X connect 5 0 3 0;
#X connect 6 0 7 0;
#X connect 7 0 8 0;
#X connect 8 0 9 0;
#X connect 10 0 11 0;
#X connect 11 0 13 0;
#X connect 13 0 12 0;
#X connect 14 0 15 0;
#X connect 15 0 16 0;
#X connect 16 0 17 0;
#X connect 18 0 1 0;
#X connect 19 0 20 0;
#X restore 116 455 pd coms;
#N canvas 1448 329 804 558 noise 0;
#X obj 235 87 loadbang;
#X obj 214 235 s \$0-out;
#X msg 215 194 noise volume \$1;
#X msg 216 148 0.2;
#X connect 0 0 3 0;
#X connect 2 0 1 0;
#X connect 3 0 2 0;
#X restore 1520 136 pd noise;
#X obj 495 385 sel 1;
#X obj 524 412 bng 15 250 50 0 empty empty empty 17 7 0 10 -262144
-1 -1;
#X obj 454 389 tgl 15 0 empty empty empty 17 7 0 10 -262144 -1 -1 0
1;
#X obj 126 319 random 100;
#X obj 293 305 random 100;
#X obj 497 302 random 100;
#X obj 495 361 < 20;
#N canvas 962 310 1197 785 morse 0;
#X obj 135 129 t b b;
#X obj 140 569 s \$0-out;
#X obj 133 59 inlet;
#X obj 679 327 loadbang;
#X msg 679 351 read -c morse-messages.txt;
#X obj 679 375 text define \$0-morse-messages;
#X obj 420 260 text size \$0-morse-messages;
#X obj 385 201 t b b;
#X obj 383 312 random;
#X obj 380 155 bng 15 250 50 0 empty empty empty 17 7 0 10 -262144
-1 -1;
#X obj 383 336 text get \$0-morse-messages;
#X obj 383 360 list prepend coms morse message;
#X msg 104 427 coms morse start;
#X connect 0 0 12 0;
#X connect 0 1 7 0;
#X connect 2 0 0 0;
#X connect 3 0 4 0;
#X connect 4 0 5 0;
#X connect 6 0 8 1;
#X connect 7 0 8 0;
#X connect 7 1 6 0;
#X connect 8 0 10 0;
#X connect 9 0 7 0;
#X connect 10 0 11 0;
#X connect 11 0 1 0;
#X connect 12 0 1 0;
#X restore 501 456 pd morse;
#N canvas 1243 381 896 656 atmospherics 0;
#X obj 466 348 s \$0-out;
#X obj 420 160 t b b;
#X obj 206 356 s \$0-out;
#X obj 419 117 inlet;
#X msg 206 312 atmospherics start;
#X obj 467 233 random 10;
#X msg 467 257 atmospherics preset \$1;
#X connect 1 0 4 0;
#X connect 1 1 5 0;
#X connect 3 0 1 0;
#X connect 4 0 2 0;
#X connect 5 0 6 0;
#X connect 6 0 0 0;
#X restore 790 406 pd atmospherics;
#X obj 788 320 sel 1;
#X obj 817 347 bng 15 250 50 0 empty empty empty 17 7 0 10 -262144
-1 -1;
#X obj 747 324 tgl 15 0 empty empty empty 17 7 0 10 -262144 -1 -1 1
1;
#X obj 790 237 random 100;
#X obj 742 178 metro 17 1 sec;
#X obj 789 290 < 15;
#X obj 120 259 metro 21 1 sec;
#X obj 432 242 metro 23 1 sec;
#X obj 965 339 sel 1;
#X obj 994 366 bng 15 250 50 0 empty empty empty 17 7 0 10 -262144
-1 -1;
#X obj 924 343 tgl 15 0 empty empty empty 17 7 0 10 -262144 -1 -1 0
1;
#X obj 967 256 random 100;
#N canvas 759 652 896 656 drones 0;
#X obj 466 348 s \$0-out;
#X obj 420 160 t b b;
#X obj 206 356 s \$0-out;
#X obj 419 117 inlet;
#X obj 467 233 random 12;
#X msg 206 312 drones play-chords;
#X obj 467 257 + 40;
#X msg 467 281 drones root \$1;
#X connect 1 0 5 0;
#X connect 1 1 4 0;
#X connect 3 0 1 0;
#X connect 4 0 6 0;
#X connect 5 0 2 0;
#X connect 6 0 7 0;
#X connect 7 0 0 0;
#X restore 967 425 pd drones;
#X obj 966 309 < 25;
#X obj 646 263 random 100;
#X obj 503 172 metro 27 1 sec;
#X obj 645 316 < 25;
#X obj 272 265 metro 43 1 sec;
#X obj 291 364 < 35;
#X obj 126 343 < 15;
#X obj 919 197 metro 29 1 sec;
#X obj 514 82 delay 1000;
#X msg 514 106 1;
#X obj 1129 342 sel 1;
#X obj 1158 369 bng 15 250 50 0 empty empty empty 17 7 0 10 -262144
-1 -1;
#X obj 1088 346 tgl 15 0 empty empty empty 17 7 0 10 -262144 -1 -1
0 1;
#X obj 1131 259 random 100;
#X obj 1083 200 metro 29 1 sec;
#X obj 1130 312 < 10;
#N canvas 190 87 1197 785 slowed 1;
#X obj 222 160 t b b;
#X obj 320 597 s \$0-out;
#X msg 273 373 1 \$1;
#X obj 273 397 -;
#X obj 273 301 random 100;
#X obj 273 325 - 50;
#X obj 273 349 / 150;
#X obj 225 111 inlet;
#X obj 273 421 list prepend speed;
#X obj 666 77 tgl 15 0 empty empty empty 17 7 0 10 -262144 -1 -1 1
1;
#X obj 666 97 metro 1 60 sec;
#X msg 666 121 read ../samples/muzac/filelist.txt;
#X obj 499 283 t b b;
#X obj 531 307 text size \$0-muzac-filelist;
#X obj 499 331 random 1;
#X obj 499 355 text get \$0-muzac-filelist;
#X obj 666 53 loadbang;
#X msg 499 429 load \$1;
#X obj 528 223 bng 15 250 50 0 empty empty empty 17 7 0 10 -262144
-1 -1;
#X obj 499 379 route symbol;
#X obj 499 403 makefilename ../samples/muzac/%s;
#X obj 866 169 t b;
#X msg 866 217 reloaded filelist with \$1 entries;
#X msg 104 427 play;
#X obj 819 323 random 100;
#X obj 819 347 / 100;
#X msg 819 371 duration \$1;
#X obj 919 348 / 100;
#X obj 919 324 random 30;
#X msg 919 372 start-pos \$1;
#X obj 309 543 list prepend slowed;
#X obj 666 145 text define \$0-slowed-filelist;
#X obj 866 193 text size \$0-slowed-filelist;
#X obj 866 241 print slowed;
#X connect 0 0 23 0;
#X connect 0 1 4 0;
#X connect 0 1 12 0;
#X connect 0 1 24 0;
#X connect 0 1 28 0;
#X connect 2 0 3 0;
#X connect 3 0 8 0;
#X connect 4 0 5 0;
#X connect 5 0 6 0;
#X connect 6 0 2 0;
#X connect 7 0 0 0;
#X connect 9 0 10 0;
#X connect 10 0 11 0;
#X connect 11 0 31 0;
#X connect 12 0 14 0;
#X connect 12 1 13 0;
#X connect 13 0 14 1;
#X connect 14 0 15 0;
#X connect 15 0 19 0;
#X connect 16 0 9 0;
#X connect 17 0 30 0;
#X connect 18 0 12 0;
#X connect 19 0 20 0;
#X connect 20 0 17 0;
#X connect 21 0 32 0;
#X connect 22 0 33 0;
#X connect 23 0 30 0;
#X connect 24 0 25 0;
#X connect 25 0 26 0;
#X connect 26 0 30 0;
#X connect 27 0 29 0;
#X connect 28 0 27 0;
#X connect 29 0 30 0;
#X connect 30 0 1 0;
#X connect 31 1 21 0;
#X connect 32 0 22 0;
#X restore 1155 425 pd slowed;
#X connect 1 0 9 0;
#X connect 2 0 48 0;
#X connect 3 0 31 0;
#X connect 3 0 33 0;
#X connect 3 0 34 0;
#X connect 3 0 42 0;
#X connect 3 0 44 0;
#X connect 3 0 47 0;
#X connect 3 0 54 0;
#X connect 4 0 16 0;
#X connect 6 0 11 0;
#X connect 7 0 16 0;
#X connect 8 0 11 0;
#X connect 9 0 0 0;
#X connect 12 0 15 0;
#X connect 13 0 15 0;
#X connect 18 0 25 0;
#X connect 19 0 25 0;
#X connect 21 0 46 0;
#X connect 22 0 45 0;
#X connect 23 0 24 0;
#X connect 24 0 18 0;
#X connect 24 0 20 0;
#X connect 27 0 26 0;
#X connect 28 0 26 0;
#X connect 30 0 32 0;
#X connect 31 0 30 0;
#X connect 32 0 27 0;
#X connect 32 0 29 0;
#X connect 33 0 21 0;
#X connect 34 0 23 0;
#X connect 35 0 39 0;
#X connect 36 0 39 0;
#X connect 38 0 40 0;
#X connect 40 0 35 0;
#X connect 40 0 37 0;
#X connect 41 0 43 0;
#X connect 42 0 41 0;
#X connect 43 0 12 0;
#X connect 43 0 14 0;
#X connect 44 0 22 0;
#X connect 45 0 6 0;
#X connect 45 0 10 0;
#X connect 46 0 4 0;
#X connect 46 0 5 0;
#X connect 47 0 38 0;
#X connect 48 0 49 0;
#X connect 49 0 3 0;
#X connect 50 0 56 0;
#X connect 51 0 56 0;
#X connect 53 0 55 0;
#X connect 54 0 53 0;
#X connect 55 0 50 0;
#X connect 55 0 52 0;
