#N canvas 392 336 1284 673 12;
#X obj 572 581 outlet;
#X obj 514 58 loadbang;
#X obj 514 130 tgl 15 0 empty empty empty 17 7 0 10 -262144 -1 -1 1
1;
#X obj 116 359 sel 1;
#X obj 77 368 tgl 15 0 empty empty empty 17 7 0 10 -262144 -1 -1 1
1;
#X obj 253 357 sel 1;
#X obj 179 398 bng 15 250 50 0 empty empty empty 17 7 0 10 -262144
-1 -1;
#X obj 315 382 bng 15 250 50 0 empty empty empty 17 7 0 10 -262144
-1 -1;
#X obj 226 386 tgl 15 0 empty empty empty 17 7 0 10 -262144 -1 -1 0
1;
#N canvas 939 219 1197 785 muzac 0;
#X obj 107 197 t b b, f 29;
#X msg 164 378 1 \$1;
#X obj 164 402 -;
#X obj 164 306 random 100;
#X obj 164 330 - 50;
#X obj 164 354 / 150;
#X obj 107 173 inlet;
#X obj 164 426 list prepend speed;
#X obj 309 543 list prepend muzac;
#X obj 549 88 tgl 15 0 empty empty empty 17 7 0 10 -262144 -1 -1 1
1;
#X obj 549 108 metro 1 60 sec;
#X msg 549 132 read ../samples/muzac/filelist.txt;
#X obj 303 280 t b b;
#X obj 549 156 text define \$0-muzac-filelist;
#X obj 335 304 text size \$0-muzac-filelist;
#X obj 303 328 random 1;
#X obj 303 352 text get \$0-muzac-filelist;
#X obj 549 64 loadbang;
#X msg 303 426 load \$1;
#X obj 328 249 bng 15 250 50 0 empty empty empty 17 7 0 10 -262144
-1 -1;
#X obj 303 376 route symbol;
#X obj 303 400 makefilename ../samples/muzac/%s;
#X obj 749 180 t b;
#X obj 749 204 text size \$0-muzac-filelist;
#X obj 749 252 print muzac;
#X msg 749 228 reloaded filelist with \$1 entries;
#X msg 107 427 play;
#X obj 581 340 random 100;
#X obj 581 364 / 100;
#X msg 581 388 duration \$1;
#X obj 681 365 / 100;
#X obj 681 341 random 30;
#X msg 681 389 start-pos \$1;
#X obj 309 567 list trim;
#X obj 309 591 outlet;
#X connect 0 0 26 0;
#X connect 0 1 3 0;
#X connect 0 1 12 0;
#X connect 0 1 27 0;
#X connect 0 1 31 0;
#X connect 1 0 2 0;
#X connect 2 0 7 0;
#X connect 3 0 4 0;
#X connect 4 0 5 0;
#X connect 5 0 1 0;
#X connect 6 0 0 0;
#X connect 7 0 8 0;
#X connect 8 0 33 0;
#X connect 9 0 10 0;
#X connect 10 0 11 0;
#X connect 11 0 13 0;
#X connect 12 0 15 0;
#X connect 12 1 14 0;
#X connect 13 1 22 0;
#X connect 14 0 15 1;
#X connect 15 0 16 0;
#X connect 16 0 20 0;
#X connect 17 0 9 0;
#X connect 18 0 8 0;
#X connect 19 0 12 0;
#X connect 20 0 21 0;
#X connect 21 0 18 0;
#X connect 22 0 23 0;
#X connect 23 0 25 0;
#X connect 25 0 24 0;
#X connect 26 0 8 0;
#X connect 27 0 28 0;
#X connect 28 0 29 0;
#X connect 29 0 8 0;
#X connect 30 0 32 0;
#X connect 31 0 30 0;
#X connect 32 0 8 0;
#X connect 33 0 34 0;
#X restore 253 418 pd muzac;
#X obj 519 354 sel 1;
#X obj 548 381 bng 15 250 50 0 empty empty empty 17 7 0 10 -262144
-1 -1;
#X obj 494 382 tgl 15 0 empty empty empty 17 7 0 10 -262144 -1 -1 0
1;
#N canvas 1309 148 1034 635 vox 0;
#X obj 95 132 t b b, f 20;
#X msg 143 324 1 \$1;
#X obj 143 348 -;
#X obj 143 252 random 100;
#X obj 143 276 - 50;
#X obj 143 300 / 150;
#X obj 95 108 inlet;
#X obj 143 372 list prepend speed;
#X obj 95 491 list prepend vox;
#X obj 555 314 / 100;
#X msg 555 362 duration \$1;
#X obj 494 89 tgl 15 0 empty empty empty 17 7 0 10 -262144 -1 -1 1
1;
#X obj 494 109 metro 1 60 sec;
#X obj 494 65 loadbang;
#X msg 494 133 read ../samples/vox/filelist.txt;
#X obj 494 157 text define \$0-vox-filelist;
#X obj 296 250 t b b;
#X obj 296 298 random 1;
#X msg 296 394 load \$1;
#X obj 328 274 text size \$0-vox-filelist;
#X obj 296 322 text get \$0-vox-filelist;
#X obj 296 346 route symbol;
#X obj 296 370 makefilename ../samples/vox/%s;
#X obj 680 181 t b;
#X obj 680 205 text size \$0-muzac-filelist;
#X msg 680 229 reloaded filelist with \$1 entries;
#X obj 680 253 print vox;
#X msg 95 372 play;
#X obj 712 330 / 100;
#X obj 712 306 random 30;
#X msg 712 354 start-pos \$1;
#X obj 555 338 + 0.1;
#X obj 555 290 random 90;
#X obj 95 515 list trim;
#X obj 95 539 outlet;
#X connect 0 0 27 0;
#X connect 0 1 3 0;
#X connect 0 1 16 0;
#X connect 0 1 29 0;
#X connect 0 1 32 0;
#X connect 1 0 2 0;
#X connect 2 0 7 0;
#X connect 3 0 4 0;
#X connect 4 0 5 0;
#X connect 5 0 1 0;
#X connect 6 0 0 0;
#X connect 7 0 8 0;
#X connect 8 0 33 0;
#X connect 9 0 31 0;
#X connect 10 0 8 0;
#X connect 11 0 12 0;
#X connect 12 0 14 0;
#X connect 13 0 11 0;
#X connect 14 0 15 0;
#X connect 15 1 23 0;
#X connect 16 0 17 0;
#X connect 16 1 19 0;
#X connect 17 0 20 0;
#X connect 18 0 8 0;
#X connect 19 0 17 1;
#X connect 20 0 21 0;
#X connect 21 0 22 0;
#X connect 22 0 18 0;
#X connect 23 0 24 0;
#X connect 24 0 25 0;
#X connect 25 0 26 0;
#X connect 27 0 8 0;
#X connect 28 0 30 0;
#X connect 29 0 28 0;
#X connect 30 0 8 0;
#X connect 31 0 10 0;
#X connect 32 0 9 0;
#X connect 33 0 34 0;
#X restore 519 426 pd vox;
#N canvas 1479 173 845 514 coms 0;
#X obj 236 197 gen-seq;
#X obj 155 115 t b b, f 12;
#X obj 155 91 inlet;
#X obj 396 173 random 100;
#X obj 396 197 / 100;
#X obj 490 173 random 100;
#X obj 490 197 / 100;
#X obj 585 173 random 7;
#X obj 585 197 + 60;
#X obj 155 344 outlet;
#X obj 155 296 list prepend coms;
#X obj 155 320 list trim;
#X msg 155 221 start;
#X obj 236 221 list prepend sequence;
#X msg 396 221 activity \$1;
#X msg 490 221 duration \$1;
#X obj 585 221 list prepend tones;
#X connect 0 0 13 0;
#X connect 1 0 12 0;
#X connect 1 1 0 0;
#X connect 1 1 3 0;
#X connect 1 1 5 0;
#X connect 1 1 7 0;
#X connect 2 0 1 0;
#X connect 3 0 4 0;
#X connect 4 0 14 0;
#X connect 5 0 6 0;
#X connect 6 0 15 0;
#X connect 7 0 8 0;
#X connect 8 0 16 0;
#X connect 10 0 11 0;
#X connect 11 0 9 0;
#X connect 12 0 10 0;
#X connect 13 0 10 0;
#X connect 14 0 10 0;
#X connect 15 0 10 0;
#X connect 16 0 10 0;
#X restore 116 455 pd coms;
#N canvas 1448 329 804 558 noise 0;
#X obj 235 87 loadbang;
#X obj 214 235 s \$0-out;
#X msg 215 194 noise volume \$1;
#X msg 216 148 0.2;
#X connect 0 0 3 0;
#X connect 2 0 1 0;
#X connect 3 0 2 0;
#X restore 1520 136 pd noise;
#X obj 389 357 sel 1;
#X obj 418 384 bng 15 250 50 0 empty empty empty 17 7 0 10 -262144
-1 -1;
#X obj 360 390 tgl 15 0 empty empty empty 17 7 0 10 -262144 -1 -1 0
1;
#X obj 116 311 random 100;
#X obj 253 309 random 100;
#X obj 389 309 random 100;
#X obj 389 333 < 20;
#N canvas 1011 233 751 566 morse 0;
#X obj 104 202 t b b, f 14;
#X obj 104 178 inlet;
#X obj 388 134 loadbang;
#X msg 388 158 read -c morse-messages.txt;
#X obj 388 182 text define \$0-morse-messages;
#X obj 238 265 text size \$0-morse-messages;
#X obj 199 241 t b b, f 6;
#X obj 199 289 random;
#X obj 235 204 bng 15 250 50 0 empty empty empty 17 7 0 10 -262144
-1 -1;
#X obj 199 313 text get \$0-morse-messages;
#X obj 104 386 list prepend coms;
#X obj 104 410 list trim;
#X obj 104 434 outlet;
#X msg 104 337 morse start;
#X obj 199 337 list prepend morse message;
#X connect 0 0 13 0;
#X connect 0 1 6 0;
#X connect 1 0 0 0;
#X connect 2 0 3 0;
#X connect 3 0 4 0;
#X connect 5 0 7 1;
#X connect 6 0 7 0;
#X connect 6 1 5 0;
#X connect 7 0 9 0;
#X connect 8 0 6 0;
#X connect 9 0 14 0;
#X connect 10 0 11 0;
#X connect 11 0 12 0;
#X connect 13 0 10 0;
#X connect 14 0 10 0;
#X restore 389 411 pd morse;
#N canvas 1415 249 474 367 atmospherics 0;
#X obj 87 86 t b b;
#X obj 87 62 inlet;
#X obj 139 115 random 10;
#X obj 87 167 list prepend atmospherics;
#X obj 87 191 list trim;
#X obj 87 215 outlet;
#X msg 87 131 start;
#X msg 139 139 preset \$1;
#X connect 0 0 6 0;
#X connect 0 1 2 0;
#X connect 1 0 0 0;
#X connect 2 0 7 0;
#X connect 3 0 4 0;
#X connect 4 0 5 0;
#X connect 6 0 3 0;
#X connect 7 0 3 0;
#X restore 646 416 pd atmospherics;
#X obj 646 352 sel 1;
#X obj 675 379 bng 15 250 50 0 empty empty empty 17 7 0 10 -262144
-1 -1;
#X obj 619 378 tgl 15 0 empty empty empty 17 7 0 10 -262144 -1 -1 0
1;
#X obj 646 304 random 100;
#X obj 646 280 metro 17 1 sec;
#X obj 646 328 < 15;
#X obj 116 287 metro 21 1 sec;
#X obj 389 285 metro 23 1 sec;
#X obj 790 354 sel 1;
#X obj 849 359 bng 15 250 50 0 empty empty empty 17 7 0 10 -262144
-1 -1;
#X obj 758 375 tgl 15 0 empty empty empty 17 7 0 10 -262144 -1 -1 1
1;
#X obj 790 306 random 100;
#N canvas 1379 415 628 506 drones 0;
#X obj 91 87 t b b;
#X obj 91 63 inlet;
#X obj 187 146 random 12;
#X obj 187 170 + 40;
#X obj 91 232 list prepend drones;
#X obj 91 256 list trim;
#X obj 91 280 outlet;
#X msg 91 181 play-chords;
#X msg 187 194 root \$1;
#X connect 0 0 7 0;
#X connect 0 1 2 0;
#X connect 1 0 0 0;
#X connect 2 0 3 0;
#X connect 3 0 8 0;
#X connect 4 0 5 0;
#X connect 5 0 6 0;
#X connect 7 0 4 0;
#X connect 8 0 4 0;
#X restore 790 403 pd drones;
#X obj 790 330 < 25;
#X obj 519 306 random 100;
#X obj 519 282 metro 27 1 sec;
#X obj 519 330 < 25;
#X obj 253 285 metro 43 1 sec;
#X obj 253 333 < 35;
#X obj 116 335 < 15;
#X obj 790 282 metro 29 1 sec;
#X obj 514 82 delay 1000;
#X msg 514 106 1;
#X obj 948 360 sel 1;
#X obj 977 387 bng 15 250 50 0 empty empty empty 17 7 0 10 -262144
-1 -1;
#X obj 907 364 tgl 15 0 empty empty empty 17 7 0 10 -262144 -1 -1 0
1;
#X obj 948 312 random 100;
#X obj 948 288 metro 29 1 sec;
#X obj 948 336 < 10;
#N canvas 955 182 1197 785 slowed 0;
#X obj 147 152 t b b;
#X msg 203 336 1 \$1;
#X obj 203 360 -;
#X obj 203 264 random 100;
#X obj 203 288 - 50;
#X obj 203 312 / 150;
#X obj 147 128 inlet;
#X obj 203 384 list prepend speed;
#X obj 544 75 tgl 15 0 empty empty empty 17 7 0 10 -262144 -1 -1 1
1;
#X obj 544 95 metro 1 60 sec;
#X msg 544 119 read ../samples/muzac/filelist.txt;
#X obj 364 284 t b b;
#X obj 396 308 text size \$0-muzac-filelist;
#X obj 364 332 random 1;
#X obj 364 356 text get \$0-muzac-filelist;
#X obj 544 51 loadbang;
#X msg 364 430 load \$1;
#X obj 393 224 bng 15 250 50 0 empty empty empty 17 7 0 10 -262144
-1 -1;
#X obj 364 380 route symbol;
#X obj 364 404 makefilename ../samples/muzac/%s;
#X obj 744 167 t b;
#X msg 744 215 reloaded filelist with \$1 entries;
#X msg 147 459 play;
#X obj 640 326 random 100;
#X obj 640 350 / 100;
#X msg 640 374 duration \$1;
#X obj 740 351 / 100;
#X obj 740 327 random 30;
#X msg 740 375 start-pos \$1;
#X obj 147 547 list prepend slowed;
#X obj 544 143 text define \$0-slowed-filelist;
#X obj 744 191 text size \$0-slowed-filelist;
#X obj 744 239 print slowed;
#X obj 147 571 list trim;
#X obj 147 595 outlet;
#X text 169 408 deliberately disconnected;
#X connect 0 0 22 0;
#X connect 0 1 3 0;
#X connect 0 1 11 0;
#X connect 0 1 23 0;
#X connect 0 1 27 0;
#X connect 1 0 2 0;
#X connect 2 0 7 0;
#X connect 3 0 4 0;
#X connect 4 0 5 0;
#X connect 5 0 1 0;
#X connect 6 0 0 0;
#X connect 8 0 9 0;
#X connect 9 0 10 0;
#X connect 10 0 30 0;
#X connect 11 0 13 0;
#X connect 11 1 12 0;
#X connect 12 0 13 1;
#X connect 13 0 14 0;
#X connect 14 0 18 0;
#X connect 15 0 8 0;
#X connect 16 0 29 0;
#X connect 17 0 11 0;
#X connect 18 0 19 0;
#X connect 19 0 16 0;
#X connect 20 0 31 0;
#X connect 21 0 32 0;
#X connect 22 0 29 0;
#X connect 23 0 24 0;
#X connect 24 0 25 0;
#X connect 25 0 29 0;
#X connect 26 0 28 0;
#X connect 27 0 26 0;
#X connect 28 0 29 0;
#X connect 29 0 33 0;
#X connect 30 1 20 0;
#X connect 31 0 21 0;
#X connect 33 0 34 0;
#X restore 948 419 pd slowed;
#X connect 1 0 46 0;
#X connect 2 0 29 0;
#X connect 2 0 31 0;
#X connect 2 0 32 0;
#X connect 2 0 40 0;
#X connect 2 0 42 0;
#X connect 2 0 45 0;
#X connect 2 0 52 0;
#X connect 3 0 14 0;
#X connect 5 0 9 0;
#X connect 6 0 14 0;
#X connect 7 0 9 0;
#X connect 9 0 0 0;
#X connect 10 0 13 0;
#X connect 11 0 13 0;
#X connect 13 0 0 0;
#X connect 14 0 0 0;
#X connect 16 0 23 0;
#X connect 17 0 23 0;
#X connect 19 0 44 0;
#X connect 20 0 43 0;
#X connect 21 0 22 0;
#X connect 22 0 16 0;
#X connect 22 0 18 0;
#X connect 23 0 0 0;
#X connect 24 0 0 0;
#X connect 25 0 24 0;
#X connect 26 0 24 0;
#X connect 28 0 30 0;
#X connect 29 0 28 0;
#X connect 30 0 25 0;
#X connect 30 0 27 0;
#X connect 31 0 19 0;
#X connect 32 0 21 0;
#X connect 33 0 37 0;
#X connect 34 0 37 0;
#X connect 36 0 38 0;
#X connect 37 0 0 0;
#X connect 38 0 33 0;
#X connect 38 0 35 0;
#X connect 39 0 41 0;
#X connect 40 0 39 0;
#X connect 41 0 10 0;
#X connect 41 0 12 0;
#X connect 42 0 20 0;
#X connect 43 0 5 0;
#X connect 43 0 8 0;
#X connect 44 0 3 0;
#X connect 44 0 4 0;
#X connect 45 0 36 0;
#X connect 46 0 47 0;
#X connect 47 0 2 0;
#X connect 48 0 54 0;
#X connect 49 0 54 0;
#X connect 51 0 53 0;
#X connect 52 0 51 0;
#X connect 53 0 48 0;
#X connect 53 0 50 0;
#X connect 54 0 0 0;
