#N canvas 541 127 1326 1065 12;
#X obj 190 375 drone-synth chord-drone-synth;
#X obj 509 69 inlet;
#X obj 509 93 route drones;
#X obj 509 117 dispatch \$0 root;
#X obj 509 141 dispatch \$0 play-chords;
#X obj 247 176 r \$0-root;
#N canvas 601 367 1144 597 choose-chord 0;
#X obj 51 30 inlet;
#X obj 51 54 t b f;
#X obj 51 102 pack f f;
#X obj 51 78 random 2;
#X obj 51 126 route 0 1;
#X obj 53 248 outlet;
#X obj 48 175 3chord 4 7;
#X obj 171 174 3chord 3 7;
#X connect 0 0 1 0;
#X connect 1 0 3 0;
#X connect 1 1 2 1;
#X connect 2 0 4 0;
#X connect 3 0 2 0;
#X connect 4 0 6 0;
#X connect 4 1 7 0;
#X connect 6 0 5 0;
#X connect 7 0 5 0;
#X restore 223 257 pd choose-chord;
#X obj 185 302 list store;
#X obj 104 166 r \$0-play-chords;
#X obj 185 326 list prepend play;
#X obj 185 350 list trim;
#X obj 104 190 t b;
#X obj 160 706 outlet~;
#X floatatom 268 213 5 0 0 0 - - -;
#X obj 199 579 *~;
#X obj 236 471 r \$0-volume;
#X msg 236 495 \$1 10;
#X obj 236 519 line;
#X obj 509 165 dispatch \$0 volume 0.2;
#X connect 0 0 14 0;
#X connect 1 0 2 0;
#X connect 2 0 3 0;
#X connect 3 0 4 0;
#X connect 4 0 18 0;
#X connect 5 0 6 0;
#X connect 5 0 13 0;
#X connect 6 0 7 1;
#X connect 7 0 9 0;
#X connect 8 0 11 0;
#X connect 9 0 10 0;
#X connect 10 0 0 0;
#X connect 11 0 7 0;
#X connect 14 0 12 0;
#X connect 15 0 16 0;
#X connect 16 0 17 0;
#X connect 17 0 14 1;
