#N canvas 117 202 2369 1129 12;
#X obj 2034 113 inlet;
#X obj 276 1016 outlet~;
#X obj 1210 295 s \$0-preset-loading;
#X obj 1693 95 r \$0-preset-loading;
#X obj 1486 193 list store, f 11;
#X obj 1486 265 send;
#X obj 1486 121 list split 1, f 20;
#X obj 1486 169 t b s;
#X obj 1486 97 r \$0-set-ctrl-display;
#X obj 1486 145 makefilename \$0-%s-ctrl-r;
#X obj 1486 217 list prepend set;
#X obj 1486 241 list trim;
#X obj 1701 119 s \$0-change-synth-value;
#X obj 1693 143 s \$0-set-ctrl-display;
#X obj 997 90 r \$0-preset-number-ctrl-s;
#X obj 979 187 i;
#X obj 1043 187 i;
#X obj 979 66 r \$0-preset-save-ctrl-s;
#X msg 979 211 save \$1;
#X msg 1043 211 load \$1;
#X obj 1016 114 r \$0-preset-load-ctrl-s;
#X obj 1693 167 r \$0-ctrl-change;
#X obj 1701 191 s \$0-change-synth-value;
#X obj 1043 138 r \$0-preset;
#X obj 1043 162 t b f;
#X obj 1210 247 r \$0-preset-saver;
#X obj 979 235 s \$0-preset-saver;
#X obj 1693 215 list prepend write;
#X obj 1693 239 list trim;
#X obj 1693 263 s \$0-preset-saver;
#X floatatom 696 953 10 0 0 2 op1-sustain #0-op1-sustain-ctrl-r #0-op1-sustain-ctrl-s
;
#X floatatom 687 754 5 1 100 1 preset #0-preset-number-ctrl-r #0-preset-number-ctrl-s
;
#X obj 687 777 bng 25 250 50 0 \$0-preset-save-ctrl-s empty save 30
13 0 10 -261234 -1 -1;
#X obj 687 807 bng 25 250 50 0 \$0-preset-load-ctrl-s empty load 30
13 0 10 -204786 -1 -1;
#X obj 749 777 bng 25 250 50 0 \$0-preset-open-ctrl-s empty open 30
13 0 10 -262144 -1 -1;
#X obj 749 807 bng 25 250 50 0 \$0-preset-clear-ctrl-s empty clear
30 13 0 10 -260097 -1 -1;
#X obj 813 777 bng 25 250 50 0 \$0-init-save-ctrl-s empty init_save
30 13 0 10 -262144 -1 -1;
#X obj 813 807 bng 25 250 50 0 \$0-init-load-ctrl-s empty init_load
30 13 0 10 -262144 -1 -1;
#X floatatom 696 918 10 0 0 2 op1-decay #0-op1-decay-ctrl-r #0-op1-decay-ctrl-s
;
#X floatatom 696 883 10 0 0 2 op1-attack #0-op1-attack-ctrl-r #0-op1-attack-ctrl-s
;
#X obj 906 775 bng 25 250 50 0 \$0-flush-ctrl-s empty flush 30 13 0
10 -262144 -1 -1;
#X obj 1090 459 r \$0-init-save-ctrl-s;
#X msg 1090 483 init save;
#X obj 1090 507 s \$0-preset-saver;
#X obj 1090 531 r \$0-init-load-ctrl-s;
#X msg 1090 555 init load;
#X obj 1090 579 s \$0-preset-saver;
#X obj 1090 603 r \$0-preset-clear-ctrl-s;
#X msg 1090 627 clear;
#X obj 1090 651 s \$0-preset-saver;
#X obj 1090 675 r \$0-preset-open-ctrl-s;
#X msg 1090 699 open;
#X obj 1090 723 s \$0-preset-saver;
#X obj 1271 507 s \$0-ctrl-change;
#X obj 1271 579 s \$0-ctrl-change;
#X obj 1271 651 s \$0-ctrl-change;
#X obj 973 275 r \$0-change-synth-value;
#X obj 973 323 symbol;
#X obj 973 347 makefilename \$0-%s;
#X obj 973 299 list split 1;
#X obj 973 371 t b s;
#X obj 973 395 list store;
#X obj 973 419 send;
#X obj 2034 137 dispatch \$0 preset;
#X obj 1210 55 loadbang;
#X msg 1242 175 folder \$1;
#X obj 1242 151 pdcontrol;
#X obj 1242 103 symbol \$1;
#X msg 1242 127 dir 1 \$1;
#X obj 1210 223 s \$0-preset-saver;
#X obj 1210 79 t b b;
#X obj 1210 271 preset-saver drone-synth-presets;
#X obj 2034 161 dispatch \$0 play;
#X obj 84 408 r \$0-change-synth-value;
#X obj 76 336 route 0;
#X obj 76 360 makenote 100 30000;
#X obj 425 809 delread4~ \$0-main-delay;
#X obj 397 956 delwrite~ \$0-main-delay 500;
#X obj 397 884 delay-allpass 61;
#X obj 76 312 r \$0-play-voice;
#X obj 76 456 throw~ \$0-mix;
#X obj 298 722 catch~ \$0-mix;
#X obj 134 336 r \$0-note-length;
#X obj 93 50 route list float;
#X obj 93 74 list split 1;
#X obj 131 128 list store;
#X obj 93 98 t b f;
#X obj 125 152 t b f;
#X obj 125 200 pack f f;
#X obj 125 176 counter 8;
#X obj 125 224 s \$0-play-voice;
#X obj 298 751 *~ 0.2;
#X obj 472 737 +~ 1;
#X obj 472 761 *~ 100;
#X obj 472 689 osc~ 0.0037;
#X obj 227 922 *~ 0.7;
#X obj 306 921 *~ 0.7;
#X floatatom 696 990 10 0 0 2 op1-release #0-op1-release-ctrl-r #0-op1-release-ctrl-s
;
#X floatatom 694 1033 10 0 0 2 note-length #0-note-length-ctrl-r #0-note-length-ctrl-s
;
#X obj 1271 723 s \$0-ctrl-change;
#X floatatom 780 953 10 0 0 2 op2-sustain #0-op2-sustain-ctrl-r #0-op2-sustain-ctrl-s
;
#X floatatom 780 918 10 0 0 2 op2-decay #0-op2-decay-ctrl-r #0-op2-decay-ctrl-s
;
#X floatatom 780 883 10 0 0 2 op2-attack #0-op2-attack-ctrl-r #0-op2-attack-ctrl-s
;
#X floatatom 780 990 10 0 0 2 op2-release #0-op2-release-ctrl-r #0-op2-release-ctrl-s
;
#X obj 1271 459 r \$0-op1-attack-ctrl-s;
#X obj 1271 531 r \$0-op1-decay-ctrl-s;
#X msg 1271 483 op1-attack \$1;
#X msg 1271 555 op1-decay \$1;
#X msg 1271 627 op1-sustain \$1;
#X obj 1271 675 r \$0-op1-release-ctrl-s;
#X obj 1271 603 r \$0-op1-sustain-ctrl-s;
#X msg 1271 699 op1-release \$1;
#X obj 1445 507 s \$0-ctrl-change;
#X obj 1445 579 s \$0-ctrl-change;
#X obj 1445 651 s \$0-ctrl-change;
#X obj 1445 723 s \$0-ctrl-change;
#X obj 1445 459 r \$0-op2-attack-ctrl-s;
#X msg 1445 483 op2-attack \$1;
#X obj 1445 531 r \$0-op2-decay-ctrl-s;
#X msg 1445 555 op2-decay \$1;
#X obj 1445 603 r \$0-op2-sustain-ctrl-s;
#X msg 1445 627 op2-sustain \$1;
#X obj 1445 675 r \$0-op2-release-ctrl-s;
#X msg 1445 699 op2-release \$1;
#X obj 93 26 r \$0-play;
#X floatatom 784 1032 10 0 0 2 op2-ratio #0-op2-ratio-ctrl-r #0-op2-ratio-ctrl-s
;
#X obj 1847 506 s \$0-ctrl-change;
#X obj 1847 458 r \$0-op2-ratio-ctrl-s;
#X msg 1847 482 op2-ratio \$1;
#X obj 1852 738 s \$0-ctrl-change;
#X obj 1852 690 r \$0-note-length-ctrl-s;
#X msg 1852 714 note-length \$1;
#X floatatom 1157 918 10 0 0 2 vibrato-freq #0-vibrato-freq-ctrl-r
#0-vibrato-freq-ctrl-s;
#X floatatom 1156 956 10 0 0 2 vibrato-depth #0-vibrato-depth-ctrl-r
#0-vibrato-depth-ctrl-s;
#X obj 76 384 pack f f;
#X obj 84 576 r \$0-change-synth-value;
#X obj 76 528 makenote 100 30000;
#X obj 76 480 r \$0-play-voice;
#X obj 76 624 throw~ \$0-mix;
#X obj 134 504 r \$0-note-length;
#X obj 76 552 pack f f;
#X obj 76 504 route 1;
#X obj 267 408 r \$0-change-synth-value;
#X obj 259 360 makenote 100 30000;
#X obj 259 312 r \$0-play-voice;
#X obj 259 456 throw~ \$0-mix;
#X obj 317 336 r \$0-note-length;
#X obj 259 384 pack f f;
#X obj 267 576 r \$0-change-synth-value;
#X obj 259 528 makenote 100 30000;
#X obj 259 480 r \$0-play-voice;
#X obj 259 624 throw~ \$0-mix;
#X obj 317 504 r \$0-note-length;
#X obj 259 552 pack f f;
#X obj 259 336 route 2;
#X obj 259 504 route 3;
#X obj 450 408 r \$0-change-synth-value;
#X obj 442 360 makenote 100 30000;
#X obj 442 312 r \$0-play-voice;
#X obj 442 456 throw~ \$0-mix;
#X obj 500 336 r \$0-note-length;
#X obj 442 384 pack f f;
#X obj 450 576 r \$0-change-synth-value;
#X obj 442 528 makenote 100 30000;
#X obj 442 480 r \$0-play-voice;
#X obj 442 624 throw~ \$0-mix;
#X obj 500 504 r \$0-note-length;
#X obj 442 552 pack f f;
#X obj 633 408 r \$0-change-synth-value;
#X obj 625 360 makenote 100 30000;
#X obj 625 312 r \$0-play-voice;
#X obj 625 456 throw~ \$0-mix;
#X obj 683 336 r \$0-note-length;
#X obj 625 384 pack f f;
#X obj 633 576 r \$0-change-synth-value;
#X obj 625 528 makenote 100 30000;
#X obj 625 480 r \$0-play-voice;
#X obj 625 624 throw~ \$0-mix;
#X obj 683 504 r \$0-note-length;
#X obj 625 552 pack f f;
#X obj 442 336 route 4;
#X obj 442 504 route 5;
#X obj 625 336 route 6;
#X obj 625 504 route 7;
#X obj 472 713 *~ 0.7;
#X obj 397 908 delay-allpass 211;
#X obj 397 932 delay-allpass 379;
#X obj 76 432 filter-fm-voice;
#X obj 76 600 filter-fm-voice;
#X obj 259 432 filter-fm-voice;
#X obj 259 600 filter-fm-voice;
#X obj 442 432 filter-fm-voice;
#X obj 442 600 filter-fm-voice;
#X obj 625 432 filter-fm-voice;
#X obj 625 600 filter-fm-voice;
#X floatatom 860 953 10 0 0 2 filter-sustain #0-filter-sustain-ctrl-r
#0-filter-sustain-ctrl-s;
#X floatatom 860 918 10 0 0 2 filter-decay #0-filter-decay-ctrl-r #0-filter-decay-ctrl-s
;
#X floatatom 860 883 10 0 0 2 filter-attack #0-filter-attack-ctrl-r
#0-filter-attack-ctrl-s;
#X floatatom 860 990 10 0 0 2 filter-release #0-filter-release-ctrl-r
#0-filter-release-ctrl-s;
#X floatatom 992 881 10 0 0 2 filter-resonance #0-filter-resonance-ctrl-r
#0-filter-resonance-ctrl-s;
#X floatatom 991 920 10 0 0 2 filter-freq-ratio #0-filter-freq-ratio-ctrl-r
#0-filter-freq-ratio-ctrl-s;
#X obj 1621 507 s \$0-ctrl-change;
#X obj 1621 579 s \$0-ctrl-change;
#X obj 1621 651 s \$0-ctrl-change;
#X obj 1621 723 s \$0-ctrl-change;
#X obj 1621 459 r \$0-filter-attack-ctrl-s;
#X obj 1621 531 r \$0-filter-decay-ctrl-s;
#X msg 1621 483 filter-attack \$1;
#X msg 1621 555 filter-decay \$1;
#X obj 1621 603 r \$0-filter-sustain-ctrl-s;
#X msg 1621 627 filter-sustain \$1;
#X obj 1621 675 r \$0-filter-release-ctrl-s;
#X msg 1621 699 filter-release \$1;
#X obj 1847 578 s \$0-ctrl-change;
#X msg 1847 554 filter-freq-ratio \$1;
#X obj 1847 530 r \$0-filter-freq-ratio-ctrl-s;
#X obj 1847 650 s \$0-ctrl-change;
#X obj 1847 602 r \$0-filter-resonance-ctrl-s;
#X obj 2063 506 s \$0-ctrl-change;
#X obj 2063 578 s \$0-ctrl-change;
#X obj 425 857 *~ 0.7;
#X obj 425 833 lop~ 5000;
#X obj 1378 830 r \$0-flush-ctrl-s;
#X obj 1378 1006 send;
#X obj 1378 982 t b s;
#X obj 1378 958 makefilename \$0-%s-ctrl-r;
#X obj 1378 934 symbol;
#X msg 1847 626 resonance \$1;
#X msg 2063 482 vibrato-freq \$1;
#X msg 2063 554 vibrato-depth \$1;
#X obj 2063 458 r \$0-vibrato-freq-ctrl-s;
#X obj 2063 530 r \$0-vibrato-depth-ctrl-s;
#X msg 1378 854 op1-attack \, op1-decay \, op1-sustain \, op1-release
\, op2-attack \, op2-decay \, op2-sustain \, op2-release \, filter-attack
\, filter-decay \, filter-sustain \, filter-release \, op2-ratio \,
filter-freq-ratio \, resonance \, vibrato-freq \, vibrato-depth \,
note-length;
#X obj 199 384 tgl 15 0 empty empty empty 17 7 0 10 -262144 -1 -1 0
1;
#X obj 199 552 tgl 15 0 empty empty empty 17 7 0 10 -262144 -1 -1 0
1;
#X obj 382 552 tgl 15 0 empty empty empty 17 7 0 10 -262144 -1 -1 0
1;
#X obj 382 384 tgl 15 0 empty empty empty 17 7 0 10 -262144 -1 -1 0
1;
#X obj 565 384 tgl 15 0 empty empty empty 17 7 0 10 -262144 -1 -1 0
1;
#X obj 565 552 tgl 15 0 empty empty empty 17 7 0 10 -262144 -1 -1 0
1;
#X obj 748 384 tgl 15 0 empty empty empty 17 7 0 10 -262144 -1 -1 0
1;
#X obj 748 552 tgl 15 0 empty empty empty 17 7 0 10 -262144 -1 -1 0
1;
#X msg 1210 199 load 1;
#X connect 0 0 63 0;
#X connect 3 0 12 0;
#X connect 3 0 13 0;
#X connect 4 0 10 0;
#X connect 6 0 9 0;
#X connect 6 1 4 1;
#X connect 7 0 4 0;
#X connect 7 1 5 1;
#X connect 8 0 6 0;
#X connect 9 0 7 0;
#X connect 10 0 11 0;
#X connect 11 0 5 0;
#X connect 14 0 15 1;
#X connect 14 0 16 1;
#X connect 15 0 18 0;
#X connect 16 0 19 0;
#X connect 17 0 15 0;
#X connect 18 0 26 0;
#X connect 19 0 26 0;
#X connect 20 0 16 0;
#X connect 21 0 27 0;
#X connect 21 0 22 0;
#X connect 23 0 24 0;
#X connect 24 0 16 0;
#X connect 24 1 16 1;
#X connect 24 1 15 1;
#X connect 25 0 71 0;
#X connect 27 0 28 0;
#X connect 28 0 29 0;
#X connect 41 0 42 0;
#X connect 42 0 43 0;
#X connect 44 0 45 0;
#X connect 45 0 46 0;
#X connect 47 0 48 0;
#X connect 48 0 49 0;
#X connect 50 0 51 0;
#X connect 51 0 52 0;
#X connect 56 0 59 0;
#X connect 57 0 58 0;
#X connect 58 0 60 0;
#X connect 59 0 57 0;
#X connect 59 1 61 1;
#X connect 60 0 61 0;
#X connect 60 1 62 1;
#X connect 61 0 62 0;
#X connect 63 0 72 0;
#X connect 64 0 70 0;
#X connect 65 0 69 0;
#X connect 66 0 65 0;
#X connect 67 0 68 0;
#X connect 68 0 66 0;
#X connect 70 0 241 0;
#X connect 70 1 67 0;
#X connect 71 0 2 0;
#X connect 73 0 187 1;
#X connect 74 0 75 0;
#X connect 75 0 134 0;
#X connect 75 1 134 1;
#X connect 75 1 233 0;
#X connect 76 0 96 0;
#X connect 76 0 221 0;
#X connect 78 0 185 0;
#X connect 79 0 74 0;
#X connect 81 0 91 0;
#X connect 82 0 75 2;
#X connect 83 0 84 0;
#X connect 83 1 87 0;
#X connect 84 0 86 0;
#X connect 84 1 85 1;
#X connect 85 0 84 0;
#X connect 86 0 85 0;
#X connect 86 1 87 0;
#X connect 87 0 89 0;
#X connect 87 1 88 1;
#X connect 88 0 90 0;
#X connect 89 0 88 0;
#X connect 91 0 78 0;
#X connect 91 0 95 0;
#X connect 92 0 93 0;
#X connect 93 0 76 0;
#X connect 94 0 184 0;
#X connect 95 0 1 0;
#X connect 96 0 1 0;
#X connect 104 0 106 0;
#X connect 105 0 107 0;
#X connect 106 0 53 0;
#X connect 107 0 54 0;
#X connect 108 0 55 0;
#X connect 109 0 111 0;
#X connect 110 0 108 0;
#X connect 111 0 99 0;
#X connect 116 0 117 0;
#X connect 117 0 112 0;
#X connect 118 0 119 0;
#X connect 119 0 113 0;
#X connect 120 0 121 0;
#X connect 121 0 114 0;
#X connect 122 0 123 0;
#X connect 123 0 115 0;
#X connect 124 0 83 0;
#X connect 127 0 128 0;
#X connect 128 0 126 0;
#X connect 130 0 131 0;
#X connect 131 0 129 0;
#X connect 134 0 187 0;
#X connect 135 0 188 1;
#X connect 136 0 140 0;
#X connect 136 1 140 1;
#X connect 136 1 234 0;
#X connect 137 0 141 0;
#X connect 139 0 136 2;
#X connect 140 0 188 0;
#X connect 141 0 136 0;
#X connect 142 0 189 1;
#X connect 143 0 147 0;
#X connect 143 1 147 1;
#X connect 143 1 236 0;
#X connect 144 0 154 0;
#X connect 146 0 143 2;
#X connect 147 0 189 0;
#X connect 148 0 190 1;
#X connect 149 0 153 0;
#X connect 149 1 153 1;
#X connect 149 1 235 0;
#X connect 150 0 155 0;
#X connect 152 0 149 2;
#X connect 153 0 190 0;
#X connect 154 0 143 0;
#X connect 155 0 149 0;
#X connect 156 0 191 1;
#X connect 157 0 161 0;
#X connect 157 1 161 1;
#X connect 157 1 237 0;
#X connect 158 0 180 0;
#X connect 160 0 157 2;
#X connect 161 0 191 0;
#X connect 162 0 192 1;
#X connect 163 0 167 0;
#X connect 163 1 167 1;
#X connect 163 1 238 0;
#X connect 164 0 181 0;
#X connect 166 0 163 2;
#X connect 167 0 192 0;
#X connect 168 0 193 1;
#X connect 169 0 173 0;
#X connect 169 1 173 1;
#X connect 169 1 239 0;
#X connect 170 0 182 0;
#X connect 172 0 169 2;
#X connect 173 0 193 0;
#X connect 174 0 194 1;
#X connect 175 0 179 0;
#X connect 175 1 179 1;
#X connect 175 1 240 0;
#X connect 176 0 183 0;
#X connect 178 0 175 2;
#X connect 179 0 194 0;
#X connect 180 0 157 0;
#X connect 181 0 163 0;
#X connect 182 0 169 0;
#X connect 183 0 175 0;
#X connect 184 0 92 0;
#X connect 185 0 186 0;
#X connect 186 0 77 0;
#X connect 187 0 80 0;
#X connect 188 0 138 0;
#X connect 189 0 145 0;
#X connect 190 0 151 0;
#X connect 191 0 159 0;
#X connect 192 0 165 0;
#X connect 193 0 171 0;
#X connect 194 0 177 0;
#X connect 205 0 207 0;
#X connect 206 0 208 0;
#X connect 207 0 201 0;
#X connect 208 0 202 0;
#X connect 209 0 210 0;
#X connect 210 0 203 0;
#X connect 211 0 212 0;
#X connect 212 0 204 0;
#X connect 214 0 213 0;
#X connect 215 0 214 0;
#X connect 217 0 227 0;
#X connect 220 0 78 0;
#X connect 221 0 220 0;
#X connect 222 0 232 0;
#X connect 224 0 223 0;
#X connect 224 1 223 1;
#X connect 225 0 224 0;
#X connect 226 0 225 0;
#X connect 227 0 216 0;
#X connect 228 0 218 0;
#X connect 229 0 219 0;
#X connect 230 0 228 0;
#X connect 231 0 229 0;
#X connect 232 0 226 0;
#X connect 241 0 69 0;
