#N canvas 957 25 525 359 12;
#X obj 105 211 drone-synth drone-synth;
#X obj 105 235 dac~;
#X obj 91 125 list prepend play;
#X obj 91 149 list trim;
#X msg 91 101 41 45 48 51;
#X msg 271 99 41 53 56 60;
#X msg 212 91 65;
#X connect 0 0 1 0;
#X connect 0 0 1 1;
#X connect 2 0 3 0;
#X connect 3 0 0 0;
#X connect 4 0 2 0;
#X connect 5 0 2 0;
#X connect 6 0 2 0;
