#N canvas 499 219 1099 700 12;
#X obj 93 73 conductor;
#X obj 558 510 dac~;
#X obj 663 392 noise;
#X obj 271 206 muzac;
#X obj 433 198 vox;
#X obj 93 97 s \$0-from-conductor;
#X obj 92 141 r \$0-from-conductor;
#X obj 695 368 r \$0-from-conductor;
#X obj 259 137 r \$0-from-conductor;
#X obj 405 141 r \$0-from-conductor;
#X obj 116 200 coms;
#X obj 573 195 atmospherics;
#X obj 572 143 r \$0-from-conductor;
#X obj 561 450 +~;
#X obj 555 356 main-effects;
#X obj 611 287 drones;
#X obj 621 250 r \$0-from-conductor;
#X obj 783 292 slowed;
#X obj 801 250 r \$0-from-conductor;
#X connect 0 0 5 0;
#X connect 2 0 13 1;
#X connect 3 0 14 0;
#X connect 4 0 14 0;
#X connect 6 0 10 0;
#X connect 7 0 2 0;
#X connect 8 0 3 0;
#X connect 9 0 4 0;
#X connect 10 0 14 0;
#X connect 11 0 14 0;
#X connect 12 0 11 0;
#X connect 13 0 1 0;
#X connect 13 0 1 1;
#X connect 14 0 13 0;
#X connect 15 0 14 0;
#X connect 16 0 15 0;
#X connect 17 0 14 0;
#X connect 18 0 17 0;
