#N canvas 726 80 1792 1010 12;
#X obj 243 151 conductor;
#X obj 554 864 dac~;
#X obj 552 795 noise;
#X obj 402 453 muzac;
#X obj 588 437 vox;
#X obj 243 175 s \$0-from-conductor;
#X obj 94 418 r \$0-from-conductor;
#X obj 764 766 r \$0-from-conductor;
#X obj 390 384 r \$0-from-conductor;
#X obj 560 380 r \$0-from-conductor;
#X obj 118 477 coms;
#X obj 761 661 tgl 15 0 empty empty empty 17 7 0 10 -262144 -1 -1 0
1;
#X obj 761 681 * 0.1;
#X msg 761 709 noise volume \$1;
#X obj 705 530 atmospherics;
#X obj 736 397 r \$0-from-conductor;
#X connect 0 0 5 0;
#X connect 2 0 1 0;
#X connect 2 0 1 1;
#X connect 3 0 2 0;
#X connect 4 0 2 0;
#X connect 6 0 10 0;
#X connect 7 0 2 1;
#X connect 8 0 3 0;
#X connect 9 0 4 0;
#X connect 10 0 2 0;
#X connect 11 0 12 0;
#X connect 12 0 13 0;
#X connect 13 0 2 1;
#X connect 14 0 2 0;
#X connect 15 0 14 0;
