#N canvas 623 194 1937 1110 12;
#X text 38 80 short mark \, dot or dit: "dit duration" is one time
unit long;
#X text 34 108 long mark \, dash or dah: three time units long;
#X text 30 133 inter-element gap between the dits and dahs within a
character: one dot duration or one unit long;
#X text 25 175 short gap (between letters): three time units long;
#X text 44 202 medium gap (between words): seven time units long;
#X text 36 228 50ms "dit duration" seems to be standard;
#X obj 742 324 until;
#X obj 742 396 list store;
#X msg 742 372 get \$1 1;
#X obj 742 348 counter;
#X obj 689 540 list store, f 36;
#X obj 617 56 loadbang;
#X obj 617 104 text define \$0-morse-letters;
#X msg 617 80 read -c letters.txt;
#X obj 742 420 route symbol;
#N canvas 1029 391 961 800 convertword 0;
#X obj 166 45 inlet;
#X obj 263 141 until, f 16;
#X obj 263 213 list store;
#X msg 263 189 get \$1 1;
#X obj 263 165 counter;
#X obj 166 471 list store, f 48;
#X obj 196 117 t b b b l b, f 39;
#X obj 196 93 list fromsymbol;
#X obj 263 237 text search \$0-morse-letters;
#X obj 263 261 route -1;
#X obj 316 333 text get \$0-morse-letters;
#X obj 316 285 t f b;
#X msg 348 309 2;
#N canvas 1224 211 593 720 morse-letter 0;
#X obj 166 183 until;
#X obj 178 258 list store;
#X msg 166 231 get \$1 1;
#X obj 166 207 counter;
#X obj 112 121 list fromsymbol;
#X obj 112 98 inlet;
#X obj 112 465 list store, f 40;
#X obj 112 585 outlet;
#X obj 178 283 sel 45 46;
#X msg 178 312 append 3 1;
#X msg 263 312 append 1 1;
#X obj 112 145 t b b b l b b, f 48;
#X obj 112 489 t l l;
#X obj 144 513 list length;
#X obj 144 537 - 1;
#X obj 112 561 list split;
#X connect 0 0 3 0;
#X connect 1 0 8 0;
#X connect 1 1 0 1;
#X connect 2 0 1 0;
#X connect 3 0 2 0;
#X connect 4 0 11 0;
#X connect 5 0 4 0;
#X connect 6 0 12 0;
#X connect 8 0 9 0;
#X connect 8 1 10 0;
#X connect 9 0 6 0;
#X connect 10 0 6 0;
#X connect 11 0 6 0;
#X connect 11 1 0 0;
#X connect 11 2 3 2;
#X connect 11 3 1 1;
#X connect 11 5 6 1;
#X connect 12 0 15 0;
#X connect 12 1 13 0;
#X connect 13 0 14 0;
#X connect 14 0 15 1;
#X connect 15 0 7 0;
#X restore 316 357 pd morse-letter;
#X obj 316 381 list append 3;
#X obj 166 69 t b s b, f 48;
#X obj 316 405 list prepend append;
#X obj 316 429 list trim;
#X obj 166 591 outlet;
#X obj 166 495 t l l;
#X obj 198 519 list length;
#X obj 198 543 - 1;
#X obj 166 567 list split;
#X connect 0 0 15 0;
#X connect 1 0 4 0;
#X connect 2 0 8 0;
#X connect 2 1 1 1;
#X connect 3 0 2 0;
#X connect 4 0 3 0;
#X connect 5 0 19 0;
#X connect 6 1 1 0;
#X connect 6 2 4 2;
#X connect 6 3 2 1;
#X connect 7 0 6 0;
#X connect 8 0 9 0;
#X connect 9 1 11 0;
#X connect 10 0 13 0;
#X connect 11 0 10 0;
#X connect 11 1 12 0;
#X connect 12 0 10 1;
#X connect 13 0 14 0;
#X connect 14 0 16 0;
#X connect 15 0 5 0;
#X connect 15 1 7 0;
#X connect 15 2 5 1;
#X connect 16 0 17 0;
#X connect 17 0 5 0;
#X connect 19 0 22 0;
#X connect 19 1 20 0;
#X connect 20 0 21 0;
#X connect 21 0 22 1;
#X connect 22 0 18 0;
#X restore 742 444 pd convertword;
#X obj 742 468 list append 7;
#X obj 742 492 list prepend append;
#X obj 742 516 list trim;
#X obj 1022 42 inlet;
#X obj 1022 66 dispatch \$0 message;
#X obj 1022 90 dispatch \$0 freq 440;
#X obj 1022 138 dispatch \$0 start;
#X obj 657 249 r \$0-message;
#X obj 689 564 s \$0-morse-message;
#X obj 147 416 rhythm-player;
#X obj 231 325 r \$0-morse-message;
#X obj 231 373 list trim;
#X obj 129 326 r \$0-start;
#X msg 130 375 start;
#X obj 146 612 f 440;
#X obj 309 614 r \$0-timeunit;
#X obj 146 550 t b b;
#X obj 176 578 r \$0-freq;
#X obj 145 655 osc~;
#X obj 158 728 *~;
#X obj 158 752 outlet~;
#X msg 45 346 stop;
#X obj 231 349 list prepend sequence;
#X obj 435 323 r \$0-timeunit;
#X obj 383 255 loadbang;
#X msg 383 279 count 1;
#X obj 657 273 t b a;
#X obj 689 300 t b b b a b, f 31;
#X msg 435 347 time \$1;
#X obj 1022 114 dispatch \$0 timeunit 50;
#X msg 309 638 time \$1;
#X obj 221 662 ad-env 1 1 50;
#X obj 129 350 t b b;
#X obj 147 472 counter;
#X obj 147 496 % 2;
#X obj 147 520 sel 0;
#X obj 147 440 t b;
#X text 212 494 only trigger every other output as seq list has lengths
of ons and offs;
#X connect 6 0 9 0;
#X connect 7 0 14 0;
#X connect 7 1 6 1;
#X connect 8 0 7 0;
#X connect 9 0 8 0;
#X connect 10 0 24 0;
#X connect 11 0 13 0;
#X connect 13 0 12 0;
#X connect 14 0 15 0;
#X connect 15 0 16 0;
#X connect 16 0 17 0;
#X connect 17 0 18 0;
#X connect 18 0 10 0;
#X connect 19 0 20 0;
#X connect 20 0 21 0;
#X connect 21 0 45 0;
#X connect 23 0 42 0;
#X connect 25 0 52 0;
#X connect 26 0 38 0;
#X connect 27 0 25 0;
#X connect 28 0 48 0;
#X connect 29 0 25 0;
#X connect 30 0 34 0;
#X connect 31 0 46 0;
#X connect 32 0 30 0;
#X connect 32 1 47 0;
#X connect 33 0 30 1;
#X connect 34 0 35 0;
#X connect 35 0 36 0;
#X connect 37 0 25 0;
#X connect 38 0 27 0;
#X connect 39 0 44 0;
#X connect 40 0 41 0;
#X connect 41 0 25 0;
#X connect 42 1 43 0;
#X connect 43 0 10 0;
#X connect 43 1 6 0;
#X connect 43 2 9 2;
#X connect 43 3 7 1;
#X connect 43 4 10 1;
#X connect 44 0 25 0;
#X connect 45 0 22 0;
#X connect 46 0 47 1;
#X connect 47 0 35 1;
#X connect 48 0 29 0;
#X connect 48 1 49 2;
#X connect 49 0 50 0;
#X connect 50 0 51 0;
#X connect 51 0 32 0;
#X connect 52 0 49 0;
