#N canvas 0 25 1440 847 12;
#X obj 1372 116 inlet;
#X obj 1372 140 route muzac;
#X obj 1365 425 s \$0-to-sampler;
#X obj 1395 364 route lfo;
#X obj 1395 388 s \$0-vollfo;
#X obj 1372 188 dispatch \$0 vollfodepth 0.05;
#X obj 1372 164 dispatch \$0 volume 0.7;
#X obj 280 849 outlet~;
#X obj 321 656 lfo;
#X obj 500 656 r \$0-volume;
#X msg 500 680 \$1 100;
#X obj 321 632 r \$0-vollfo;
#X obj 321 735 *~;
#X msg 358 684 \$1 100;
#X obj 358 660 r \$0-vollfodepth;
#X obj 321 759 +~;
#X obj 358 708 line~;
#X obj 500 704 line~;
#X obj 280 825 *~;
#X obj 40 60 r \$0-play;
#X obj 83 180 delay;
#X obj 597 394 sampleplayer;
#X obj 678 370 r \$0-to-sampler;
#X obj 215 287 random 4;
#X obj 215 311 + 1;
#X msg 215 335 preset \$1;
#X obj 40 293 ad-env 100 100 10;
#X obj 105 509 *~;
#X obj 215 359 tuning-noise tuning-noise-presets;
#X obj 106 618 +~;
#X obj 678 418 route playtime;
#X msg 123 156 attack \$1;
#X msg 200 156 decay \$1;
#X obj 40 84 t b b b b, f 19;
#X msg 83 204 play;
#X obj 83 228 s \$0-to-sampler;
#X obj 646 466 delay;
#X floatatom 296 158 5 0 0 0 - - -;
#X floatatom 313 319 5 0 0 0 - - -;
#X obj 123 132 + 200;
#X obj 115 108 random 500;
#X obj 678 442 - 200;
#X obj 218 78 r \$0-tuning-time-range;
#X obj 419 75 r \$0-tuning-time-range;
#X obj 419 99 / 1.5;
#X obj 201 108 r \$0-tuning-overlap-time;
#X obj 419 123 s \$0-tuning-overlap-time;
#X obj 796 414 r \$0-tuning-overlap-time;
#X floatatom 375 160 5 0 0 0 - - -;
#X floatatom 253 38 5 0 0 0 - - -;
#X obj 1372 212 dispatch \$0 tuning-time-range 1000;
#X obj 1372 236 dispatch \$0 play;
#X obj 105 533 *~ 0.25;
#X connect 0 0 1 0;
#X connect 1 0 6 0;
#X connect 3 0 4 0;
#X connect 5 0 50 0;
#X connect 6 0 5 0;
#X connect 8 0 12 0;
#X connect 9 0 10 0;
#X connect 10 0 17 0;
#X connect 11 0 8 0;
#X connect 12 0 15 0;
#X connect 13 0 16 0;
#X connect 14 0 13 0;
#X connect 15 0 18 1;
#X connect 16 0 12 1;
#X connect 17 0 15 1;
#X connect 18 0 7 0;
#X connect 19 0 33 0;
#X connect 20 0 34 0;
#X connect 20 0 36 0;
#X connect 21 0 29 1;
#X connect 21 1 30 0;
#X connect 22 0 21 1;
#X connect 23 0 24 0;
#X connect 23 0 38 0;
#X connect 24 0 25 0;
#X connect 25 0 28 0;
#X connect 26 0 27 0;
#X connect 27 0 52 0;
#X connect 28 0 27 1;
#X connect 29 0 18 0;
#X connect 30 0 41 0;
#X connect 31 0 26 0;
#X connect 32 0 26 1;
#X connect 33 0 26 0;
#X connect 33 1 20 0;
#X connect 33 2 40 0;
#X connect 33 3 23 0;
#X connect 34 0 35 0;
#X connect 36 0 26 0;
#X connect 39 0 31 0;
#X connect 39 0 32 0;
#X connect 39 0 37 0;
#X connect 40 0 20 1;
#X connect 40 0 39 0;
#X connect 41 0 36 1;
#X connect 42 0 40 1;
#X connect 42 0 49 0;
#X connect 43 0 44 0;
#X connect 44 0 46 0;
#X connect 44 0 48 0;
#X connect 45 0 39 1;
#X connect 47 0 41 1;
#X connect 50 0 51 0;
#X connect 51 0 3 0;
#X connect 51 0 2 0;
#X connect 52 0 29 0;
