#N canvas 196 252 1999 1066 12;
#X obj 1745 32 inlet;
#X obj 1745 56 route noise;
#X obj 1745 104 dispatch \$0 density 0.3;
#N canvas 605 302 786 436 white-pink-noise 0;
#X obj 123 135 rpole~ 0.995728;
#X obj 125 189 rpole~ 0.947906;
#X obj 123 242 rpole~ 0.535675;
#X obj 140 106 rzero~ 0.984436;
#X obj 140 164 rzero~ 0.833923;
#X obj 139 214 rzero~ 0.0756836;
#X obj 123 320 outlet~;
#X obj 57 79 noise~;
#X text 195 296 normalization factor was found empirically;
#X obj 123 294 *~ 0.17;
#N canvas 172 83 586 377 LICENSE-GPL 0;
#X text 57 88 This program is free software: you can redistribute it
and/or modify it under the terms of the GNU General Public License
as published by the Free Software Foundation \, either version 3 of
the License \, or (at your option) any later version.;
#X text 58 168 This program is distributed in the hope that it will
be useful \, but WITHOUT ANY WARRANTY \; without even the implied warranty
of MERCHANTABILITY or FITNESS FOR A PARTICULAR PURPOSE. See the GNU
General Public License for more details.;
#X text 57 261 You should have received a copy of the GNU General Public
License along with this program. If not \, see <http://www.gnu.org/licenses/>.
;
#X text 61 54 Copyright (C) 2009 \, Reality Jockey Ltd.;
#X text 60 325 See the file LICENSE.txt for the full license text.
;
#X restore 493 24 pd LICENSE-GPL;
#X text 307 120 pulled from the s_pinknoise abstraction in the rjlib
;
#X obj 57 320 outlet~;
#X connect 0 0 4 0;
#X connect 1 0 5 0;
#X connect 2 0 9 0;
#X connect 3 0 0 0;
#X connect 4 0 1 0;
#X connect 5 0 2 0;
#X connect 7 0 3 0;
#X connect 7 0 12 0;
#X connect 9 0 6 0;
#X restore 87 63 pd white-pink-noise;
#X obj 71 334 hip~ 50;
#X obj 352 86 r \$0-genmod;
#X obj 313 129 *~;
#X obj 317 182 +~;
#X obj 343 146 r \$0-genoffset;
#X obj 317 206 osc~;
#X obj 322 259 *~;
#X obj 367 223 r \$0-gengain;
#X obj 322 307 *~;
#X obj 322 283 clip~ -1 1;
#X obj 318 378 hip~;
#X obj 351 333 r \$0-genhipass;
#X obj 242 657 *~;
#X obj 130 469 +~ 1;
#X obj 262 556 r \$0-volume;
#X msg 262 580 \$1 10;
#X obj 262 604 line~;
#X obj 389 387 lfo 0.0037 1.177 3.25;
#X obj 389 437 +~ 1;
#X obj 389 413 *~ 0.5;
#X obj 84 526 *~;
#X obj 342 499 *~;
#X obj 239 711 outlet~;
#X obj 1745 80 dispatch \$0 volume 0.1;
#X obj 130 419 lfo 0.0027 1.137 2.25;
#X obj 389 461 *~ 1;
#X obj 130 445 *~ 0.5;
#X obj 130 493 *~ 0.5;
#X obj 71 358 lop~ 250;
#X obj 928 104 s \$0-preset-loading;
#X obj 1348 55 r \$0-preset-loading;
#X obj 1141 153 list store, f 11;
#X obj 1141 225 send;
#X obj 1141 81 list split 1, f 20;
#X obj 1141 129 t b s;
#X obj 1141 57 r \$0-set-ctrl-display;
#X obj 1141 105 makefilename \$0-%s-ctrl-r;
#X obj 1141 177 list prepend set;
#X obj 1141 201 list trim;
#X obj 1356 79 s \$0-change-synth-value;
#X obj 1348 103 s \$0-set-ctrl-display;
#X obj 686 71 r \$0-preset-number-ctrl-s;
#X obj 668 168 i;
#X obj 732 168 i;
#X obj 668 47 r \$0-preset-save-ctrl-s;
#X msg 668 192 save \$1;
#X msg 732 192 load \$1;
#X obj 705 95 r \$0-preset-load-ctrl-s;
#X obj 1348 127 r \$0-ctrl-change;
#X obj 1356 151 s \$0-change-synth-value;
#X obj 732 119 r \$0-preset;
#X obj 732 143 t b f;
#X obj 928 56 r \$0-preset-saver;
#X obj 668 216 s \$0-preset-saver;
#X obj 1348 175 list prepend write;
#X obj 1348 199 list trim;
#X obj 1348 223 s \$0-preset-saver;
#X floatatom 618 770 10 0 0 2 gengain #0-gengain-ctrl-r #0-gengain-ctrl-s
;
#X floatatom 618 805 10 0 0 2 genhipass #0-genhipass-ctrl-r #0-genhipass-ctrl-s
;
#X floatatom 609 571 5 1 100 1 preset #0-preset-number-ctrl-r #0-preset-number-ctrl-s
;
#X obj 609 594 bng 25 250 50 0 \$0-preset-save-ctrl-s empty save 30
13 0 10 -261234 -1 -1;
#X obj 609 624 bng 25 250 50 0 \$0-preset-load-ctrl-s empty load 30
13 0 10 -204786 -1 -1;
#X obj 671 594 bng 25 250 50 0 \$0-preset-open-ctrl-s empty open 30
13 0 10 -262144 -1 -1;
#X obj 671 624 bng 25 250 50 0 \$0-preset-clear-ctrl-s empty clear
30 13 0 10 -260097 -1 -1;
#X obj 735 594 bng 25 250 50 0 \$0-init-save-ctrl-s empty init_save
30 13 0 10 -262144 -1 -1;
#X obj 735 624 bng 25 250 50 0 \$0-init-load-ctrl-s empty init_load
30 13 0 10 -262144 -1 -1;
#X floatatom 618 735 10 0 0 2 genoffset #0-genoffset-ctrl-r #0-genoffset-ctrl-s
;
#X floatatom 618 700 10 0 0 2 genmod #0-genmod-ctrl-r #0-genmod-ctrl-s
;
#X obj 828 592 bng 25 250 50 0 \$0-flush-ctrl-s empty flush 30 13 0
10 -262144 -1 -1;
#X obj 1200 346 r \$0-init-save-ctrl-s;
#X msg 1200 370 init save;
#X obj 1200 394 s \$0-preset-saver;
#X obj 1200 418 r \$0-init-load-ctrl-s;
#X msg 1200 442 init load;
#X obj 1200 466 s \$0-preset-saver;
#X obj 1200 490 r \$0-preset-clear-ctrl-s;
#X msg 1200 514 clear;
#X obj 1200 538 s \$0-preset-saver;
#X obj 1200 562 r \$0-preset-open-ctrl-s;
#X msg 1200 586 open;
#X obj 1200 610 s \$0-preset-saver;
#X obj 1330 797 r \$0-flush-ctrl-s;
#X obj 1330 973 send;
#X obj 1330 949 t b s;
#X obj 1330 925 makefilename \$0-%s-ctrl-r;
#X obj 1330 901 symbol;
#X msg 1330 821 genmod \, genoffset \, gengain \, genhipass;
#X obj 1416 343 r \$0-genmod-ctrl-s;
#X msg 1416 367 genmod \$1;
#X obj 1416 391 s \$0-ctrl-change;
#X obj 1416 415 r \$0-genoffset-ctrl-s;
#X obj 1416 463 s \$0-ctrl-change;
#X obj 1416 487 r \$0-gengain-ctrl-s;
#X msg 1416 511 gengain \$1;
#X obj 1416 535 s \$0-ctrl-change;
#X obj 1416 559 r \$0-genhipass-ctrl-s;
#X obj 1416 607 s \$0-ctrl-change;
#X msg 1416 439 genoffset \$1;
#X msg 1416 583 genhipass \$1;
#X obj 928 80 preset-saver noise-presets;
#X obj 1745 128 dispatch \$0 preset 1;
#X obj 662 256 r \$0-change-synth-value;
#X obj 662 304 symbol;
#X obj 662 328 makefilename \$0-%s;
#X obj 662 280 list split 1;
#X obj 662 352 t b s;
#X obj 662 376 list store;
#X obj 662 400 send;
#X floatatom 463 130 5 0 0 0 - - -;
#X floatatom 389 184 5 0 0 0 - - -;
#X floatatom 395 256 5 0 0 0 - - -;
#X floatatom 367 359 5 0 0 0 - - -;
#X connect 0 0 1 0;
#X connect 1 0 27 0;
#X connect 2 0 104 0;
#X connect 3 0 4 0;
#X connect 3 1 6 0;
#X connect 3 1 4 0;
#X connect 4 0 32 0;
#X connect 5 0 6 1;
#X connect 5 0 112 0;
#X connect 6 0 7 0;
#X connect 7 0 9 0;
#X connect 8 0 7 1;
#X connect 8 0 113 0;
#X connect 9 0 10 0;
#X connect 10 0 13 0;
#X connect 11 0 10 1;
#X connect 11 0 114 0;
#X connect 12 0 14 0;
#X connect 13 0 12 0;
#X connect 13 0 12 1;
#X connect 14 0 25 0;
#X connect 15 0 14 1;
#X connect 15 0 115 0;
#X connect 16 0 26 0;
#X connect 17 0 31 0;
#X connect 18 0 19 0;
#X connect 19 0 20 0;
#X connect 20 0 16 1;
#X connect 21 0 23 0;
#X connect 22 0 29 0;
#X connect 23 0 22 0;
#X connect 24 0 16 0;
#X connect 25 0 16 0;
#X connect 27 0 2 0;
#X connect 28 0 30 0;
#X connect 29 0 25 1;
#X connect 30 0 17 0;
#X connect 31 0 24 1;
#X connect 32 0 24 0;
#X connect 34 0 43 0;
#X connect 34 0 44 0;
#X connect 35 0 41 0;
#X connect 37 0 40 0;
#X connect 37 1 35 1;
#X connect 38 0 35 0;
#X connect 38 1 36 1;
#X connect 39 0 37 0;
#X connect 40 0 38 0;
#X connect 41 0 42 0;
#X connect 42 0 36 0;
#X connect 45 0 46 1;
#X connect 45 0 47 1;
#X connect 46 0 49 0;
#X connect 47 0 50 0;
#X connect 48 0 46 0;
#X connect 49 0 57 0;
#X connect 50 0 57 0;
#X connect 51 0 47 0;
#X connect 52 0 58 0;
#X connect 52 0 53 0;
#X connect 54 0 55 0;
#X connect 55 0 47 0;
#X connect 55 1 47 1;
#X connect 55 1 46 1;
#X connect 56 0 103 0;
#X connect 58 0 59 0;
#X connect 59 0 60 0;
#X connect 73 0 74 0;
#X connect 74 0 75 0;
#X connect 76 0 77 0;
#X connect 77 0 78 0;
#X connect 79 0 80 0;
#X connect 80 0 81 0;
#X connect 82 0 83 0;
#X connect 83 0 84 0;
#X connect 85 0 90 0;
#X connect 87 0 86 0;
#X connect 87 1 86 1;
#X connect 88 0 87 0;
#X connect 89 0 88 0;
#X connect 90 0 89 0;
#X connect 91 0 92 0;
#X connect 92 0 93 0;
#X connect 94 0 101 0;
#X connect 96 0 97 0;
#X connect 97 0 98 0;
#X connect 99 0 102 0;
#X connect 101 0 95 0;
#X connect 102 0 100 0;
#X connect 103 0 33 0;
#X connect 105 0 108 0;
#X connect 106 0 107 0;
#X connect 107 0 109 0;
#X connect 108 0 106 0;
#X connect 108 1 110 1;
#X connect 109 0 110 0;
#X connect 109 1 111 1;
#X connect 110 0 111 0;
