#N canvas 0 38 1231 834 12;
#X obj 939 128 inlet;
#X obj 939 152 dispatch \$0 load;
#X obj 939 200 dispatch \$0 stop;
#X obj 891 352 r \$0-load;
#X obj 911 48 array define \$0-audio 1.323e+07;
#X text 1002 72 5 minutes of audio;
#X obj 891 376 symbol;
#X obj 891 448 soundfiler, f 22;
#X obj 469 614 r \$0-samples;
#X obj 451 662 tabread4~ \$0-audio;
#X obj 451 686 outlet~;
#X obj 965 376 symbol \$0-audio;
#X msg 891 424 read -resize \$1 \$2;
#X obj 965 352 loadbang;
#X obj 891 400 list append;
#X obj 939 248 dispatch \$0 speed 1;
#X obj 451 638 *~;
#X obj 1042 472 list split 1;
#X obj 451 547 vline~;
#X obj 304 443 inlet~;
#X obj 1042 496 s \$0-samplerate;
#X obj 891 472 s \$0-samples;
#X obj 506 121 r \$0-samplerate;
#X obj 488 145 /;
#X obj 488 97 r \$0-samples;
#X obj 496 193 r \$0-speed;
#X obj 488 241 /;
#X obj 496 217 t b f;
#X obj 488 169 * 1000;
#X obj 704 138 r \$0-start-pos;
#X obj 939 224 dispatch \$0 start-pos 0;
#X obj 704 162 t b f;
#X msg 743 57 start-pos \$1;
#X floatatom 745 31 5 0 0 0 - - -;
#X floatatom 640 21 5 0 0 0 - - -;
#X msg 640 44 length \$1;
#X obj 696 186 +;
#X obj 696 210 min 1;
#X obj 696 237 - 1;
#X floatatom 813 252 5 0 0 0 - - -;
#X text 808 231 playlength;
#X floatatom 534 245 5 0 0 0 - - -;
#X obj 648 320 *;
#X obj 674 270 t b f;
#X obj 467 380 r \$0-start-pos;
#X text 573 243 total-playtime;
#X text 680 321 snippet-playtime;
#X msg 451 517 \$1 0 \, \$2 \$3;
#X obj 449 452 pack f f f;
#X obj 449 419 f;
#X obj 393 359 t b;
#X obj 580 404 t b f;
#X obj 580 428 +;
#X obj 435 581 +~;
#X obj 688 378 s \$0-out;
#X msg 688 354 playtime \$1;
#X obj 839 667 r \$0-out;
#X obj 839 691 outlet;
#X floatatom 580 220 5 0 0 0 - - -;
#X floatatom 394 206 5 0 0 0 - - -;
#X obj 939 176 dispatch \$0 play;
#X obj 393 335 r \$0-play;
#X obj 939 272 dispatch \$0 duration 1;
#X obj 696 114 r \$0-duration;
#X obj 580 380 r \$0-duration;
#X connect 0 0 1 0;
#X connect 1 0 60 0;
#X connect 2 0 30 0;
#X connect 3 0 6 0;
#X connect 6 0 14 0;
#X connect 7 0 21 0;
#X connect 7 1 17 0;
#X connect 8 0 16 1;
#X connect 9 0 10 0;
#X connect 11 0 14 1;
#X connect 12 0 7 0;
#X connect 13 0 11 0;
#X connect 14 0 12 0;
#X connect 15 0 62 0;
#X connect 16 0 9 0;
#X connect 17 0 20 0;
#X connect 18 0 53 1;
#X connect 19 0 53 0;
#X connect 22 0 23 1;
#X connect 23 0 28 0;
#X connect 24 0 23 0;
#X connect 25 0 27 0;
#X connect 25 0 58 0;
#X connect 26 0 41 0;
#X connect 26 0 42 0;
#X connect 27 0 26 0;
#X connect 27 1 26 1;
#X connect 28 0 26 0;
#X connect 28 0 59 0;
#X connect 29 0 31 0;
#X connect 30 0 15 0;
#X connect 31 0 36 0;
#X connect 31 1 36 1;
#X connect 31 1 38 1;
#X connect 32 0 1 0;
#X connect 33 0 32 0;
#X connect 34 0 35 0;
#X connect 35 0 1 0;
#X connect 36 0 37 0;
#X connect 37 0 38 0;
#X connect 38 0 39 0;
#X connect 38 0 43 0;
#X connect 42 0 48 2;
#X connect 42 0 55 0;
#X connect 43 0 42 0;
#X connect 43 1 42 1;
#X connect 44 0 49 1;
#X connect 44 0 52 0;
#X connect 47 0 18 0;
#X connect 48 0 47 0;
#X connect 49 0 48 0;
#X connect 50 0 49 0;
#X connect 51 0 52 0;
#X connect 51 1 52 1;
#X connect 52 0 48 1;
#X connect 53 0 16 0;
#X connect 55 0 54 0;
#X connect 56 0 57 0;
#X connect 60 0 2 0;
#X connect 61 0 50 0;
#X connect 63 0 36 0;
#X connect 64 0 51 0;
