#N canvas 0 58 1316 759 12;
#X obj 974 31 inlet;
#X obj 974 79 dispatch \$0 root;
#X obj 974 127 dispatch \$0 volume 0.2;
#X obj 57 247 outlet~;
#X obj 974 55 route slowed;
#X obj 57 79 phase-vocoder;
#X obj 586 38 array define \$0-audio 1.323e+07;
#X text 677 62 5 minutes of audio;
#X obj 1052 436 soundfiler;
#X obj 1052 352 t s b;
#X obj 1052 387 pack s s;
#X msg 1052 412 read -resize \$1 \$2;
#X obj 974 151 dispatch \$0 load;
#X obj 1051 296 r \$0-load;
#X obj 1105 355 symbol \$0-audio;
#X obj 57 55 r \$0-to-pv;
#X obj 387 75 s \$0-to-pv;
#X msg 388 104 speed 0.1;
#X obj 388 128 s \$0-to-pv;
#X obj 145 103 route playhead-pos;
#X obj 145 127 s \$0-ph-pos;
#X obj 612 500 >;
#X obj 391 184 s \$0-to-pv;
#X obj 393 240 s \$0-to-pv;
#X obj 612 398 r \$0-ph-pos;
#X obj 974 175 dispatch \$0 duration 1;
#X obj 974 199 dispatch \$0 start-pos 0;
#X obj 1029 564 s \$0-samplength;
#X obj 1052 484 /;
#X obj 1052 508 * 1000;
#X obj 1052 531 s \$0-samp-msec;
#X obj 57 223 *~;
#X obj 75 151 r \$0-volume;
#X msg 75 175 \$1 10;
#X obj 75 199 line;
#X obj 1119 460 list split 1;
#X obj 694 241 r \$0-duration;
#X obj 718 275 r \$0-start-pos;
#X obj 702 341 +;
#X obj 718 299 t b f;
#X obj 702 365 min 1;
#X obj 795 334 r \$0-samp-msec;
#X obj 795 358 t b f;
#X obj 734 421 *;
#X msg 387 51 window-size 4096;
#X obj 612 524 sel 1;
#X obj 421 433 f;
#X obj 439 337 r \$0-start-pos;
#X obj 447 361 r \$0-samp-msec;
#X obj 447 385 t b f;
#X obj 439 409 *;
#X msg 421 457 playhead-pos \$1;
#X obj 421 481 s \$0-to-pv;
#X msg 612 548 0;
#X obj 612 572 s \$0-run-state;
#X obj 375 337 t b b b;
#X msg 398 505 1;
#X obj 398 529 s \$0-run-state;
#X obj 974 247 dispatch \$0 speed 0.1;
#X obj 392 553 r \$0-speed;
#X obj 374 577 f;
#X msg 374 601 speed \$1;
#X obj 374 625 s \$0-to-pv;
#X obj 814 493 r \$0-run-state;
#X obj 912 633 switch~;
#X obj 643 640 sel 0;
#X msg 643 664 speed 0;
#X obj 643 688 s \$0-to-pv;
#X obj 894 529 loadbang;
#X msg 894 553 0;
#X obj 974 103 dispatch \$0 play;
#X obj 375 313 r \$0-play;
#X obj 814 517 t f f;
#X floatatom 1136 500 10 0 0 0 - - -;
#X obj 1051 320 symbol;
#X obj 887 587 tgl 15 0 empty empty empty 17 7 0 10 -262144 -1 -1 0
1;
#X floatatom 248 152 5 0 0 0 - - -;
#X obj 556 110 loadbang;
#X obj 556 182 s \$0-to-pv;
#X obj 556 134 symbol \$0-audio;
#X msg 556 158 sample-array \$1;
#X obj 639 100 bng 15 250 50 0 empty empty empty 17 7 0 10 -262144
-1 -1;
#X msg 393 216 lock 0;
#X floatatom 737 466 10 0 0 0 - - -;
#X obj 974 223 dispatch \$0 volume 0.3;
#X msg 391 160 transpose 0;
#X obj 387 27 loadbang;
#X msg 713 659 playhead-pos 0;
#X connect 0 0 4 0;
#X connect 1 0 70 0;
#X connect 2 0 12 0;
#X connect 4 0 1 0;
#X connect 5 0 31 0;
#X connect 5 1 19 0;
#X connect 8 0 28 0;
#X connect 8 0 27 0;
#X connect 8 1 35 0;
#X connect 9 0 10 0;
#X connect 9 1 14 0;
#X connect 10 0 11 0;
#X connect 11 0 8 0;
#X connect 12 0 25 0;
#X connect 13 0 74 0;
#X connect 14 0 10 1;
#X connect 15 0 5 0;
#X connect 17 0 18 0;
#X connect 19 0 20 0;
#X connect 19 0 76 0;
#X connect 21 0 45 0;
#X connect 24 0 21 0;
#X connect 25 0 26 0;
#X connect 26 0 84 0;
#X connect 28 0 29 0;
#X connect 29 0 30 0;
#X connect 29 0 73 0;
#X connect 31 0 3 0;
#X connect 32 0 33 0;
#X connect 33 0 34 0;
#X connect 34 0 31 1;
#X connect 35 0 28 1;
#X connect 36 0 38 0;
#X connect 37 0 39 0;
#X connect 38 0 40 0;
#X connect 39 0 38 0;
#X connect 39 1 38 1;
#X connect 40 0 43 0;
#X connect 41 0 42 0;
#X connect 42 0 43 0;
#X connect 42 1 43 1;
#X connect 43 0 21 1;
#X connect 43 0 83 0;
#X connect 44 0 16 0;
#X connect 45 0 53 0;
#X connect 46 0 51 0;
#X connect 47 0 50 0;
#X connect 48 0 49 0;
#X connect 49 0 50 0;
#X connect 49 1 50 1;
#X connect 50 0 46 1;
#X connect 51 0 52 0;
#X connect 53 0 54 0;
#X connect 55 0 60 0;
#X connect 55 1 56 0;
#X connect 55 2 46 0;
#X connect 56 0 57 0;
#X connect 59 0 60 1;
#X connect 60 0 61 0;
#X connect 61 0 62 0;
#X connect 63 0 72 0;
#X connect 65 0 66 0;
#X connect 65 0 87 0;
#X connect 66 0 67 0;
#X connect 68 0 69 0;
#X connect 69 0 75 0;
#X connect 70 0 2 0;
#X connect 71 0 55 0;
#X connect 72 0 65 0;
#X connect 72 1 75 0;
#X connect 74 0 9 0;
#X connect 75 0 64 0;
#X connect 77 0 79 0;
#X connect 79 0 80 0;
#X connect 80 0 78 0;
#X connect 81 0 79 0;
#X connect 82 0 23 0;
#X connect 84 0 58 0;
#X connect 85 0 22 0;
#X connect 86 0 44 0;
#X connect 87 0 67 0;
