#N canvas 206 225 2354 1135 12;
#X obj 1793 65 inlet;
#N canvas 605 302 786 436 white-pink-noise 0;
#X obj 123 135 rpole~ 0.995728;
#X obj 125 189 rpole~ 0.947906;
#X obj 123 242 rpole~ 0.535675;
#X obj 140 106 rzero~ 0.984436;
#X obj 140 164 rzero~ 0.833923;
#X obj 139 214 rzero~ 0.0756836;
#X obj 123 320 outlet~;
#X obj 57 79 noise~;
#X text 195 296 normalization factor was found empirically;
#X obj 123 294 *~ 0.17;
#N canvas 172 83 586 377 LICENSE-GPL 0;
#X text 57 88 This program is free software: you can redistribute it
and/or modify it under the terms of the GNU General Public License
as published by the Free Software Foundation \, either version 3 of
the License \, or (at your option) any later version.;
#X text 58 168 This program is distributed in the hope that it will
be useful \, but WITHOUT ANY WARRANTY \; without even the implied warranty
of MERCHANTABILITY or FITNESS FOR A PARTICULAR PURPOSE. See the GNU
General Public License for more details.;
#X text 57 261 You should have received a copy of the GNU General Public
License along with this program. If not \, see <http://www.gnu.org/licenses/>.
;
#X text 61 54 Copyright (C) 2009 \, Reality Jockey Ltd.;
#X text 60 325 See the file LICENSE.txt for the full license text.
;
#X restore 493 24 pd LICENSE-GPL;
#X text 307 120 pulled from the s_pinknoise abstraction in the rjlib
;
#X obj 57 320 outlet~;
#X connect 0 0 4 0;
#X connect 1 0 5 0;
#X connect 2 0 9 0;
#X connect 3 0 0 0;
#X connect 4 0 1 0;
#X connect 5 0 2 0;
#X connect 7 0 3 0;
#X connect 7 0 12 0;
#X connect 9 0 6 0;
#X restore 111 39 pd white-pink-noise;
#X obj 194 158 *~;
#X obj 258 346 osc~;
#X obj 263 399 *~;
#X obj 263 447 *~;
#X obj 263 423 clip~ -1 1;
#X obj 259 518 hip~;
#X obj 330 527 lfo 0.0037 1.177 3.25;
#X obj 330 577 +~ 1;
#X obj 330 553 *~ 0.5;
#X obj 283 639 *~;
#X obj 232 823 outlet~;
#X obj 330 601 *~ 1;
#X obj 976 317 s \$0-preset-loading;
#X obj 1541 94 r \$0-preset-loading;
#X obj 1334 192 list store, f 11;
#X obj 1334 264 send;
#X obj 1334 120 list split 1, f 20;
#X obj 1334 168 t b s;
#X obj 1334 96 r \$0-set-ctrl-display;
#X obj 1334 144 makefilename \$0-%s-ctrl-r;
#X obj 1334 216 list prepend set;
#X obj 1334 240 list trim;
#X obj 1549 118 s \$0-change-synth-value;
#X obj 1541 142 s \$0-set-ctrl-display;
#X obj 734 104 r \$0-preset-number-ctrl-s;
#X obj 716 201 i;
#X obj 780 201 i;
#X obj 716 80 r \$0-preset-save-ctrl-s;
#X msg 716 225 save \$1;
#X msg 780 225 load \$1;
#X obj 753 128 r \$0-preset-load-ctrl-s;
#X obj 1541 166 r \$0-ctrl-change;
#X obj 1549 190 s \$0-change-synth-value;
#X obj 780 152 r \$0-preset;
#X obj 780 176 t b f;
#X obj 976 269 r \$0-preset-saver;
#X obj 716 249 s \$0-preset-saver;
#X obj 1541 214 list prepend write;
#X obj 1541 238 list trim;
#X obj 1541 262 s \$0-preset-saver;
#X floatatom 666 803 10 0 0 2 gain #0-gain-ctrl-r #0-gain-ctrl-s;
#X floatatom 657 604 5 1 100 1 preset #0-preset-number-ctrl-r #0-preset-number-ctrl-s
;
#X obj 657 627 bng 25 250 50 0 \$0-preset-save-ctrl-s empty save 30
13 0 10 -261234 -1 -1;
#X obj 657 657 bng 25 250 50 0 \$0-preset-load-ctrl-s empty load 30
13 0 10 -204786 -1 -1;
#X obj 719 627 bng 25 250 50 0 \$0-preset-open-ctrl-s empty open 30
13 0 10 -262144 -1 -1;
#X obj 719 657 bng 25 250 50 0 \$0-preset-clear-ctrl-s empty clear
30 13 0 10 -260097 -1 -1;
#X obj 783 627 bng 25 250 50 0 \$0-init-save-ctrl-s empty init_save
30 13 0 10 -262144 -1 -1;
#X obj 783 657 bng 25 250 50 0 \$0-init-load-ctrl-s empty init_load
30 13 0 10 -262144 -1 -1;
#X floatatom 666 768 10 0 0 2 modfreq #0-modfreq-ctrl-r #0-modfreq-ctrl-s
;
#X floatatom 666 733 10 0 0 2 noisemod #0-noisemod-ctrl-r #0-noisemod-ctrl-s
;
#X obj 876 625 bng 25 250 50 0 \$0-flush-ctrl-s empty flush 30 13 0
10 -262144 -1 -1;
#X obj 1248 379 r \$0-init-save-ctrl-s;
#X msg 1248 403 init save;
#X obj 1248 427 s \$0-preset-saver;
#X obj 1248 451 r \$0-init-load-ctrl-s;
#X msg 1248 475 init load;
#X obj 1248 499 s \$0-preset-saver;
#X obj 1248 523 r \$0-preset-clear-ctrl-s;
#X msg 1248 547 clear;
#X obj 1248 571 s \$0-preset-saver;
#X obj 1248 595 r \$0-preset-open-ctrl-s;
#X msg 1248 619 open;
#X obj 1248 643 s \$0-preset-saver;
#X obj 1378 830 r \$0-flush-ctrl-s;
#X obj 1378 1006 send;
#X obj 1378 982 t b s;
#X obj 1378 958 makefilename \$0-%s-ctrl-r;
#X obj 1378 934 symbol;
#X msg 1378 854 genmod \, genoffset \, gengain \, genhipass;
#X obj 1464 424 s \$0-ctrl-change;
#X obj 1464 496 s \$0-ctrl-change;
#X obj 1464 568 s \$0-ctrl-change;
#X obj 710 289 r \$0-change-synth-value;
#X obj 710 337 symbol;
#X obj 710 361 makefilename \$0-%s;
#X obj 710 313 list split 1;
#X obj 710 385 t b s;
#X obj 710 409 list store;
#X obj 710 433 send;
#X floatatom 257 132 5 0 0 0 - - -;
#X floatatom 326 284 5 0 0 0 - - -;
#X floatatom 336 396 5 0 0 0 - - -;
#X floatatom 308 499 5 0 0 0 - - -;
#X floatatom 762 732 10 0 0 2 hipass #0-hipass-ctrl-r #0-hipass-ctrl-s
;
#X obj 1660 424 s \$0-ctrl-change;
#X obj 173 115 +~;
#X obj 239 105 r \$0-noisemod;
#X obj 280 246 r \$0-modfreq;
#X obj 1464 376 r \$0-noisemod-ctrl-s;
#X msg 1464 400 noisemod \$1;
#X obj 1464 448 r \$0-modfreq-ctrl-s;
#X msg 1464 472 modfreq \$1;
#X obj 355 142 *~;
#X floatatom 764 817 10 0 0 2 vibrato_depth #0-vibrato-depth-ctrl-r
#0-vibrato-depth-ctrl-s;
#X obj 1660 496 s \$0-ctrl-change;
#X obj 355 94 lfo 0.1 1.177 3.25;
#X floatatom 764 777 10 0 0 2 vibrato_speed #0-vibrato-speed-ctrl-r
#0-vibrato-speed-ctrl-s;
#X obj 1660 568 s \$0-ctrl-change;
#X obj 1660 448 r \$0-vibrato-speed-ctrl-s;
#X msg 1660 472 vibrato-speed \$1;
#X obj 373 118 r \$0-vibrato-depth;
#X obj 1660 520 r \$0-vibrato-depth-ctrl-s;
#X msg 1660 544 vibrato-depth \$1;
#X obj 355 46 r \$0-vibrato-speed;
#X obj 262 199 +~ 1;
#X obj 254 282 *~;
#X obj 308 363 r \$0-gain;
#X obj 1464 520 r \$0-gain-ctrl-s;
#X msg 1464 544 gain \$1;
#X obj 134 75 *~ 0.2;
#X obj 976 293 preset-saver tuning-noise-presets;
#X obj 1660 376 r \$0-hipass-ctrl-s;
#X msg 1660 400 hipass \$1;
#X obj 292 473 r \$0-hipass;
#X floatatom 510 89 5 0 0 0 - - -;
#X floatatom 511 160 5 0 0 0 - - -;
#X msg 355 70 freq \$1;
#X obj 229 764 +~;
#X obj 112 627 lop~ 500;
#X obj 112 651 hip~ 200;
#X obj 179 710 *~;
#X obj 186 669 r \$0-noise;
#X floatatom 861 733 10 0 0 2 noise #0-noise-ctrl-r #0-noise-ctrl-s
;
#X obj 1860 373 r \$0-noise-ctrl-s;
#X msg 1860 397 noise \$1;
#X obj 1860 421 s \$0-ctrl-change;
#X obj 1793 89 dispatch \$0 preset;
#X obj 1004 42 loadbang;
#X msg 1036 162 folder \$1;
#X obj 1036 138 pdcontrol;
#X obj 1036 90 symbol \$1;
#X msg 1036 114 dir 1 \$1;
#X obj 1004 210 s \$0-preset-saver;
#X obj 1004 66 t b b;
#X msg 1004 186 load 1;
#X connect 0 0 128 0;
#X connect 1 0 111 0;
#X connect 1 0 120 0;
#X connect 1 1 87 1;
#X connect 2 0 106 0;
#X connect 3 0 4 0;
#X connect 4 0 6 0;
#X connect 5 0 7 0;
#X connect 6 0 5 0;
#X connect 6 0 5 1;
#X connect 7 0 11 0;
#X connect 8 0 10 0;
#X connect 9 0 13 0;
#X connect 10 0 9 0;
#X connect 11 0 119 1;
#X connect 13 0 11 1;
#X connect 15 0 24 0;
#X connect 15 0 25 0;
#X connect 16 0 22 0;
#X connect 18 0 21 0;
#X connect 18 1 16 1;
#X connect 19 0 16 0;
#X connect 19 1 17 1;
#X connect 20 0 18 0;
#X connect 21 0 19 0;
#X connect 22 0 23 0;
#X connect 23 0 17 0;
#X connect 26 0 27 1;
#X connect 26 0 28 1;
#X connect 27 0 30 0;
#X connect 28 0 31 0;
#X connect 29 0 27 0;
#X connect 30 0 38 0;
#X connect 31 0 38 0;
#X connect 32 0 28 0;
#X connect 33 0 39 0;
#X connect 33 0 34 0;
#X connect 35 0 36 0;
#X connect 36 0 28 0;
#X connect 36 1 28 1;
#X connect 36 1 27 1;
#X connect 37 0 112 0;
#X connect 39 0 40 0;
#X connect 40 0 41 0;
#X connect 53 0 54 0;
#X connect 54 0 55 0;
#X connect 56 0 57 0;
#X connect 57 0 58 0;
#X connect 59 0 60 0;
#X connect 60 0 61 0;
#X connect 62 0 63 0;
#X connect 63 0 64 0;
#X connect 65 0 70 0;
#X connect 67 0 66 0;
#X connect 67 1 66 1;
#X connect 68 0 67 0;
#X connect 69 0 68 0;
#X connect 70 0 69 0;
#X connect 74 0 77 0;
#X connect 75 0 76 0;
#X connect 76 0 78 0;
#X connect 77 0 75 0;
#X connect 77 1 79 1;
#X connect 78 0 79 0;
#X connect 78 1 80 1;
#X connect 79 0 80 0;
#X connect 87 0 2 0;
#X connect 88 0 2 1;
#X connect 88 0 81 0;
#X connect 89 0 82 0;
#X connect 89 0 107 1;
#X connect 90 0 91 0;
#X connect 91 0 71 0;
#X connect 92 0 93 0;
#X connect 93 0 72 0;
#X connect 94 0 106 0;
#X connect 97 0 94 0;
#X connect 100 0 101 0;
#X connect 101 0 96 0;
#X connect 102 0 94 1;
#X connect 102 0 117 0;
#X connect 103 0 104 0;
#X connect 104 0 99 0;
#X connect 105 0 118 0;
#X connect 105 0 116 0;
#X connect 106 0 107 0;
#X connect 107 0 3 0;
#X connect 108 0 4 1;
#X connect 108 0 83 0;
#X connect 109 0 110 0;
#X connect 110 0 73 0;
#X connect 111 0 87 0;
#X connect 112 0 14 0;
#X connect 113 0 114 0;
#X connect 114 0 86 0;
#X connect 115 0 7 1;
#X connect 115 0 84 0;
#X connect 118 0 97 0;
#X connect 119 0 12 0;
#X connect 120 0 121 0;
#X connect 121 0 122 0;
#X connect 122 0 119 0;
#X connect 123 0 122 1;
#X connect 125 0 126 0;
#X connect 126 0 127 0;
#X connect 129 0 135 0;
#X connect 130 0 134 0;
#X connect 131 0 130 0;
#X connect 132 0 133 0;
#X connect 133 0 131 0;
#X connect 135 0 136 0;
#X connect 135 1 132 0;
#X connect 136 0 134 0;
