#N canvas 594 172 1966 858 12;
#X obj 986 73 inlet;
#X obj 986 208 s \$0-to-sampler;
#X obj 106 642 outlet~;
#X obj 986 97 route vox;
#X obj 986 184 dispatch \$0 play;
#X obj 40 60 r \$0-play;
#X obj 83 180 delay;
#X obj 597 394 sampleplayer;
#X obj 678 370 r \$0-to-sampler;
#X obj 215 287 random 4;
#X obj 215 311 + 1;
#X msg 215 335 preset \$1;
#X obj 40 293 ad-env 100 100 10;
#X obj 105 509 *~;
#X obj 215 359 tuning-noise tuning-noise-presets;
#X obj 106 618 +~;
#X obj 678 418 route playtime;
#X msg 123 156 attack \$1;
#X msg 200 156 decay \$1;
#X obj 40 84 t b b b b, f 19;
#X msg 83 204 play;
#X obj 83 228 s \$0-to-sampler;
#X obj 646 466 delay;
#X floatatom 296 158 5 0 0 0 - - -;
#X floatatom 313 319 5 0 0 0 - - -;
#X obj 123 132 + 200;
#X obj 115 108 random 500;
#X obj 678 442 - 200;
#X obj 218 78 r \$0-tuning-time-range;
#X obj 419 75 r \$0-tuning-time-range;
#X obj 419 99 / 1.5;
#X obj 201 108 r \$0-tuning-overlap-time;
#X obj 419 123 s \$0-tuning-overlap-time;
#X obj 796 414 r \$0-tuning-overlap-time;
#X obj 986 121 dispatch \$0 tuning-time-range 1000;
#X obj 105 533 *~ 0.15;
#X connect 0 0 3 0;
#X connect 3 0 34 0;
#X connect 4 0 1 0;
#X connect 5 0 19 0;
#X connect 6 0 20 0;
#X connect 6 0 22 0;
#X connect 7 0 15 1;
#X connect 7 1 16 0;
#X connect 8 0 7 1;
#X connect 9 0 10 0;
#X connect 9 0 24 0;
#X connect 10 0 11 0;
#X connect 11 0 14 0;
#X connect 12 0 13 0;
#X connect 13 0 35 0;
#X connect 14 0 13 1;
#X connect 15 0 2 0;
#X connect 16 0 27 0;
#X connect 17 0 12 0;
#X connect 18 0 12 1;
#X connect 19 0 12 0;
#X connect 19 1 6 0;
#X connect 19 2 26 0;
#X connect 19 3 9 0;
#X connect 20 0 21 0;
#X connect 22 0 12 0;
#X connect 25 0 17 0;
#X connect 25 0 18 0;
#X connect 25 0 23 0;
#X connect 26 0 6 1;
#X connect 26 0 25 0;
#X connect 27 0 22 1;
#X connect 28 0 26 1;
#X connect 29 0 30 0;
#X connect 30 0 32 0;
#X connect 31 0 25 1;
#X connect 33 0 27 1;
#X connect 34 0 4 0;
#X connect 35 0 15 0;
